<svg width="74" height="82" viewBox="0 0 74 82" fill="none" xmlns="http://www.w3.org/2000/svg">
<path d="M2.50098 34.4675H13.5086" stroke="black" stroke-width="2" stroke-linecap="round"/>
<path d="M27.5185 81V56.9833C27.5185 56.9833 17.0111 56.9833 11.007 54.9819C5.00279 52.9805 2.50104 36.9694 2.50104 36.9694C2.50104 36.9694 1 19.7906 1 15.7604C1 11.7303 3.50174 6.44813 8.00487 5.94778C12.508 5.44743 17.5115 8.94987 17.5115 8.94987L16.5108 17.4558L10.6723 20.5966C10.6723 20.5966 13.8774 38.6186 16.5108 40.9721C19.1442 43.3257 41.7918 39.4396 41.7918 39.4396M26.5059 41.2408C25.2969 38.8227 24.3883 35.2997 24.3883 25.6274C24.3883 15.9551 27.6124 1.84971 43.3299 1.04369C59.0473 0.237666 64.6895 10.716 65.8985 21.5973C67.1076 32.4786 65.1982 41.55 65.1982 41.55C65.1982 41.55 72.5498 42.5159 72.5498 50.9791C72.5498 59.4424 72.5498 81 72.5498 81" stroke="black" stroke-width="2" stroke-linecap="round"/>
<path d="M48.4546 39.468C61.526 37.402 58.8029 19.9007 57.8111 15.1431C57.6815 14.5214 57.0058 14.2204 56.4377 14.5045L51.1775 17.1346C50.4898 17.4784 49.8759 16.5593 50.457 16.0557C51.031 15.5582 50.4378 14.6467 49.7504 14.9701L41.0526 19.0632C40.0871 19.5176 39.1765 18.3463 39.8548 17.5227L40.213 17.0878C40.9311 16.2158 39.8787 15.0083 38.9168 15.6006L31.7024 20.0421C31.4236 20.2137 31.2469 20.5077 31.2424 20.8351C31.1968 24.1478 31.7144 42.1139 48.4546 39.468Z" stroke="black" stroke-width="2" stroke-linecap="round"/>
<path d="M39.2998 23.6123V26.4334" stroke="black" stroke-width="2" stroke-linecap="round"/>
<path d="M51.3906 23.6123V26.4334" stroke="black" stroke-width="2" stroke-linecap="round"/>
<path d="M63.5439 81.0001L63.5439 56.9834" stroke="black" stroke-width="2" stroke-linecap="round"/>
<path d="M40.0273 32.4663C42.0287 34.968 45.5312 37.9701 49.0336 33.9674" stroke="black" stroke-width="2" stroke-linecap="round"/>
<path d="M64.1431 41.3582L48.5332 39.4712" stroke="black" stroke-width="2" stroke-linecap="round"/>
<mask id="mask0_220_67" style="mask-type:alpha" maskUnits="userSpaceOnUse" x="34" y="50" width="24" height="23">
<path d="M45.2026 70.836L45.8667 71.426L46.5309 70.836L47.9324 69.591L47.9342 69.5893C49.5689 68.13 50.9277 66.8646 52.0074 65.7948C53.092 64.7202 53.9738 63.7369 54.6409 62.8471C55.3072 61.9584 55.8059 61.0988 56.0999 60.2718C56.3873 59.4636 56.5323 58.6321 56.5323 57.782C56.5323 56.0297 55.9285 54.5163 54.7138 53.3127C53.4996 52.1096 51.9766 51.5146 50.2162 51.5146C49.2338 51.5146 48.2927 51.7217 47.4032 52.1342C46.8424 52.3943 46.3297 52.7225 45.8667 53.117C45.4038 52.7225 44.891 52.3943 44.3302 52.1342C43.4407 51.7217 42.4997 51.5146 41.5172 51.5146C39.7568 51.5146 38.2339 52.1096 37.0197 53.3127C35.8049 54.5163 35.2012 56.0297 35.2012 57.782C35.2012 58.6321 35.3462 59.4636 35.6335 60.2718C35.9275 61.0988 36.4263 61.9584 37.0925 62.8471C37.7596 63.7369 38.6415 64.7202 39.726 65.7948C40.8057 66.8646 42.1645 68.13 43.7992 69.5894L43.8011 69.591L45.2026 70.836Z" fill="#949494" stroke="black" stroke-width="2"/>
</mask>
<g mask="url(#mask0_220_67)">
<rect x="19.2715" y="69.5442" width="45" height="7.60261" transform="rotate(-45 19.2715 69.5442)" fill="#FF0075"/>
<rect x="22.2744" y="76.4458" width="45.5785" height="7.71223" transform="rotate(-45 22.2744 76.4458)" fill="#7D16FF"/>
<rect x="30.1914" y="78.825" width="45.7625" height="8.25913" transform="rotate(-45 30.1914 78.825)" fill="#0BF5BD"/>
<line x1="34.9433" y1="63.1611" x2="45.9433" y2="52.1611" stroke="black"/>
<path d="M40.6631 67.8428L55.3391 53.3632" stroke="black"/>
</g>
<path d="M44.7882 71.1751L45.4554 71.7727L46.1226 71.1751L47.6515 69.8056L47.6533 69.8039C49.4359 68.1993 50.917 66.8085 52.0933 65.6333C53.2744 64.4532 54.2329 63.3753 54.9568 62.4016C55.68 61.4291 56.2179 60.4927 56.5341 59.596C56.8436 58.7182 56.9996 57.8157 56.9996 56.8932C56.9996 54.9935 56.3516 53.3557 55.0457 52.0509C53.7397 50.7462 52.1009 50.0991 50.2003 50.0991C49.1404 50.0991 48.1258 50.3243 47.1669 50.7727C46.5397 51.066 45.9685 51.4389 45.4554 51.889C44.9422 51.4389 44.371 51.066 43.7438 50.7727C42.7849 50.3243 41.7704 50.0991 40.7105 50.0991C38.8098 50.0991 37.171 50.7462 35.8651 52.0509C34.5591 53.3557 33.9111 54.9935 33.9111 56.8932C33.9111 57.8157 34.0671 58.7182 34.3766 59.596C34.6928 60.4927 35.2307 61.4291 35.9539 62.4016C36.6778 63.3753 37.6363 64.4532 38.8174 65.6333C39.9937 66.8085 41.4748 68.1993 43.2574 69.8039L43.2592 69.8056L44.7882 71.1751Z" stroke="black" stroke-width="2"/>
</svg>
