<svg xmlns="http://www.w3.org/2000/svg" viewBox="0 0 991.913 185.524"><path d="M682.844 4.808l-.108-.108a16.1 16.1 0 00-11.39-4.7C662.43 0 655.2 7.23 655.2 16.148c0 1.605.234 3.157.672 4.62a7.77 7.77 0 01.387 2.428c0 4.294-3.481 7.776-7.789 7.776a7.754 7.754 0 01-4.138-1.186 31.56 31.56 0 00-15.742-4.176c-17.529 0-31.738 14.21-31.738 31.738 0 8.53 3.365 16.276 8.84 21.982a31.622 31.622 0 0021.675 9.558c17.519.574 32.186-13.162 32.76-30.681a31.592 31.592 0 00-3.658-15.872 7.749 7.749 0 01-1.051-4.176c.141-4.303 3.734-7.67 8.028-7.529a7.753 7.753 0 012.414.468c1.448.483 2.99.77 4.594.821 8.914.293 16.376-6.696 16.669-15.61a16.096 16.096 0 00-4.308-11.518l-.127-.136" fill="#283583"/><path d="M991.913 151.08h-13.35l-1.385 4.885h9.552v7.041c-1.122 1.49-2.713 2.707-4.775 3.65-2.063.945-4.173 1.426-6.325 1.442h-.136c-4.197 0-7.739-1.389-10.624-4.17-2.886-2.78-4.33-6.198-4.33-10.25 0-3.95 1.434-7.275 4.302-9.978 2.868-2.701 6.364-4.052 10.49-4.052 2.388 0 4.637.52 6.744 1.56a15.002 15.002 0 015.333 4.39l4.206-2.833c-1.9-2.581-4.257-4.573-7.07-5.975-2.812-1.403-5.867-2.106-9.159-2.106-5.663 0-10.467 1.846-14.412 5.535-3.944 3.689-5.916 8.175-5.916 13.46 0 5.42 1.972 10.007 5.916 13.757 3.945 3.75 8.767 5.625 14.467 5.625 3.618 0 6.961-.836 10.028-2.508 3.066-1.672 5.215-3.675 6.444-6.015V151.08zm-53.358-15.693h-5.292v27.879l-19.214-27.879h-4.968v36.869h5.294v-27.88l19.241 27.88h4.939v-36.869zm-49.42 0h-5.483v21.98c0 3.274-.837 5.855-2.51 7.743-1.674 1.888-3.95 2.833-6.826 2.833-2.895 0-5.18-.945-6.853-2.833-1.674-1.888-2.51-4.469-2.51-7.743v-21.98h-5.483v21.591c0 2.736.344 5.044 1.031 6.924.688 1.88 1.782 3.548 3.284 5.001a14.53 14.53 0 004.764 3.001c1.799.702 3.722 1.053 5.767 1.053 2.025 0 3.938-.351 5.74-1.053a14.55 14.55 0 004.763-3.001c1.52-1.453 2.618-3.121 3.298-5 .677-1.88 1.017-4.189 1.017-6.925v-21.59zm-46.71 0h-22.472l-.597 4.936h9.12v31.933h5.427v-31.933h9.118l-.597-4.936zm-37.565 0h-21.44v36.869h5.43v-16.291h14.79v-4.937h-14.79v-10.654h16.635l-.625-4.987zm-42.799 0h-5.51v36.869h5.51v-36.869zm-25.457 0h-22.47l-.598 4.936h9.12v31.933h5.427v-31.933h9.119l-.598-4.936zm-39.42 23.903c-.371-1.143-.892-2.121-1.56-2.937a16.406 16.406 0 00-2.932-2.87c-1.085-.822-2.848-1.962-5.292-3.417l-.896-.519a81.112 81.112 0 01-2.875-1.78 15.28 15.28 0 01-1.684-1.26 4.32 4.32 0 01-.937-1.299 3.708 3.708 0 01-.338-1.585c0-1.3.466-2.325 1.397-3.08.933-.752 2.212-1.13 3.84-1.13 1.448 0 2.674.238 3.68.716 1.003.475 1.903 1.284 2.698 2.428l4.18-2.754-.57-.806c-.978-1.402-2.276-2.47-3.895-3.207-1.618-.737-3.506-1.106-5.659-1.106-3.31 0-5.951.85-7.923 2.548-1.973 1.697-2.959 3.975-2.959 6.833 0 1.177.185 2.247.556 3.208a7.585 7.585 0 001.67 2.585 15.5 15.5 0 002.225 1.846c.85.587 2.695 1.748 5.536 3.48l.895.521c2.263 1.35 3.829 2.55 4.697 3.599a5.479 5.479 0 011.302 3.598c0 1.593-.57 2.876-1.71 3.844-1.14.97-2.643 1.456-4.505 1.456-1.7 0-3.184-.338-4.45-1.014-1.268-.675-2.417-1.748-3.448-3.221l-4.205 2.807.434.544c1.917 2.304 3.726 3.828 5.427 4.573 1.7.746 3.763 1.117 6.187 1.117 3.51 0 6.333-.93 8.468-2.793s3.202-4.317 3.202-7.366c0-1.23-.185-2.416-.556-3.559m-116.902-23.903h-5.292v27.879l-19.214-27.879h-4.968v36.869h5.294v-27.88l19.242 27.88h4.938v-36.869zm-51.39 4.638c-3.611-3.595-8.237-5.392-13.882-5.392-5.628 0-10.246 1.797-13.856 5.392-3.608 3.594-5.413 8.196-5.413 13.808 0 5.63 1.805 10.242 5.413 13.836 3.61 3.595 8.228 5.392 13.856 5.392 5.645 0 10.27-1.797 13.881-5.392 3.61-3.594 5.414-8.206 5.414-13.836 0-5.612-1.804-10.214-5.414-13.808m-3.881 24.15c-2.524 2.616-5.858 3.923-10 3.923-4.125 0-7.454-1.307-9.988-3.923-2.532-2.616-3.8-6.064-3.8-10.342 0-4.26 1.268-7.698 3.8-10.314 2.534-2.616 5.863-3.923 9.988-3.923 4.142 0 7.476 1.307 10 3.923s3.787 6.054 3.787 10.314c0 4.278-1.263 7.726-3.787 10.342m-45.8-28.788h-4.94l-12.89 22.188-12.891-22.188h-4.968v36.869h5.292v-27.309l12.567 21.177 12.51-21.177v27.309h5.32v-36.869zm-56.968 0h-5.51v36.869h5.51v-36.869zm-26.527 23.903c-.371-1.143-.892-2.121-1.561-2.937a16.395 16.395 0 00-2.931-2.87c-1.086-.822-2.85-1.962-5.292-3.417l-.895-.519a81.501 81.501 0 01-2.878-1.78 15.428 15.428 0 01-1.681-1.26c-.4-.381-.711-.813-.937-1.299s-.34-1.013-.34-1.585c0-1.3.465-2.325 1.398-3.08.931-.752 2.212-1.13 3.84-1.13 1.448 0 2.674.238 3.678.716 1.003.475 1.903 1.284 2.7 2.428l4.18-2.754-.571-.806c-.977-1.402-2.275-2.47-3.893-3.207-1.62-.737-3.507-1.106-5.66-1.106-3.311 0-5.953.85-7.923 2.548-1.972 1.697-2.958 3.975-2.958 6.833 0 1.177.184 2.247.556 3.208a7.584 7.584 0 001.67 2.585 15.394 15.394 0 002.225 1.846c.848.587 2.695 1.748 5.535 3.48l.896.521c2.26 1.35 3.826 2.55 4.694 3.599.868 1.047 1.304 2.247 1.304 3.598 0 1.593-.571 2.876-1.71 3.844-1.14.97-2.642 1.456-4.505 1.456-1.7 0-3.185-.338-4.45-1.014-1.267-.675-2.417-1.748-3.448-3.221l-4.207 2.807.434.544c1.919 2.304 3.728 3.828 5.43 4.573 1.698.746 3.76 1.117 6.187 1.117 3.51 0 6.332-.93 8.467-2.793 2.134-1.862 3.202-4.317 3.202-7.366 0-1.23-.186-2.416-.556-3.559m-65.34-23.903h-5.292v27.879l-19.214-27.879H300.9v36.869h5.294v-27.88l19.241 27.88h4.939v-36.869zm-65.08 31.854v-11.276h14.844v-4.937h-14.844v-10.654h16.69l-.624-4.987h-21.468v36.869h21.468l.624-5.015h-16.69zm-24.793-7.951c-.37-1.143-.891-2.121-1.561-2.937a16.395 16.395 0 00-2.93-2.87c-1.087-.822-2.851-1.962-5.293-3.417l-.895-.519a81.53 81.53 0 01-2.878-1.78c-.67-.441-1.23-.862-1.681-1.26a4.287 4.287 0 01-.937-1.299 3.71 3.71 0 01-.34-1.585c0-1.3.466-2.325 1.399-3.08.93-.752 2.211-1.13 3.84-1.13 1.447 0 2.673.238 3.677.716 1.003.475 1.903 1.284 2.7 2.428l4.179-2.754-.57-.806c-.976-1.402-2.275-2.47-3.893-3.207-1.62-.737-3.506-1.106-5.66-1.106-3.311 0-5.953.85-7.925 2.548-1.972 1.697-2.958 3.975-2.958 6.833 0 1.177.186 2.247.558 3.208a7.584 7.584 0 001.667 2.585 15.606 15.606 0 002.226 1.846c.85.587 2.697 1.748 5.537 3.48l.896.521c2.26 1.35 3.826 2.55 4.694 3.599a5.479 5.479 0 011.303 3.598c0 1.593-.57 2.876-1.71 3.844-1.139.97-2.641 1.456-4.505 1.456-1.701 0-3.184-.338-4.451-1.014-1.265-.675-2.414-1.748-3.446-3.221l-4.207 2.807.434.544c1.917 2.304 3.728 3.828 5.43 4.573 1.698.746 3.76 1.117 6.187 1.117 3.51 0 6.33-.93 8.466-2.793 2.135-1.862 3.203-4.317 3.203-7.366 0-1.23-.186-2.416-.556-3.559m-39.923 0c-.371-1.143-.892-2.121-1.561-2.937a16.395 16.395 0 00-2.931-2.87c-1.084-.822-2.85-1.962-5.292-3.417l-.896-.519a81.515 81.515 0 01-2.877-1.78 15.429 15.429 0 01-1.682-1.26c-.398-.381-.71-.813-.936-1.299s-.34-1.013-.34-1.585c0-1.3.465-2.325 1.398-3.08.931-.752 2.212-1.13 3.84-1.13 1.448 0 2.674.238 3.677.716 1.004.475 1.906 1.284 2.701 2.428l4.18-2.754-.57-.806c-.978-1.402-2.276-2.47-3.895-3.207-1.62-.737-3.506-1.106-5.659-1.106-3.311 0-5.951.85-7.923 2.548-1.972 1.697-2.958 3.975-2.958 6.833 0 1.177.184 2.247.555 3.208a7.584 7.584 0 001.67 2.585 15.497 15.497 0 002.225 1.846c.85.587 2.695 1.748 5.536 3.48l.895.521c2.261 1.35 3.827 2.55 4.695 3.599a5.47 5.47 0 011.304 3.598c0 1.593-.571 2.876-1.71 3.844-1.14.97-2.643 1.456-4.505 1.456-1.7 0-3.186-.338-4.45-1.014-1.268-.675-2.417-1.748-3.448-3.221l-4.207 2.807.434.544c1.919 2.304 3.728 3.828 5.429 4.573 1.7.746 3.763 1.117 6.187 1.117 3.51 0 6.333-.93 8.468-2.793 2.133-1.862 3.202-4.317 3.202-7.366 0-1.23-.185-2.416-.556-3.559m-39.856-23.903h-5.483v21.98c0 3.274-.836 5.855-2.51 7.743s-3.948 2.833-6.826 2.833c-2.895 0-5.18-.945-6.851-2.833-1.676-1.888-2.51-4.469-2.51-7.743v-21.98h-5.483v21.591c0 2.736.342 5.044 1.032 6.924.687 1.88 1.781 3.548 3.282 5.001a14.55 14.55 0 004.763 3.001c1.801.702 3.722 1.053 5.767 1.053 2.027 0 3.94-.351 5.74-1.053a14.53 14.53 0 004.763-3.001c1.52-1.453 2.62-3.121 3.298-5 .678-1.88 1.018-4.189 1.018-6.925v-21.59zm-57.7 0h-5.02l-12.674 36.869h5.455l4.071-11.874h11.316l4.072 11.874h5.455l-12.675-36.869zm-6.675 20.214l4.153-13.044 4.178 13.044h-8.33zm-38.947 11.587v-31.8h-5.429v36.868h19.161l.678-5.068H57.4zm-27.493-4.026a13.335 13.335 0 01-4.75 3.663c-1.844.848-3.826 1.273-5.944 1.273-3.907 0-7.173-1.342-9.797-4.027-2.623-2.685-3.935-6.036-3.935-10.055 0-4.105 1.28-7.527 3.84-10.263 2.56-2.736 5.84-4.105 9.84-4.105 2.187 0 4.177.42 5.969 1.26 1.791.84 3.384 2.1 4.777 3.78l3.61-3.715c-1.666-2.009-3.742-3.56-6.229-4.65-2.488-1.093-5.197-1.64-8.128-1.64-5.502 0-10.069 1.826-13.706 5.471C1.819 143.8 0 148.422 0 154.016c0 5.421 1.833 9.95 5.496 13.589 3.663 3.637 8.254 5.456 13.773 5.456 2.84 0 5.5-.542 7.979-1.624s4.569-2.603 6.27-4.56l-3.61-3.715zm596.99-32.109h3.582v54.47h-3.655z" fill="#1d1d1b"/></svg>