<?xml version="1.0" encoding="utf-8"?>
<!-- Generator: Adobe Illustrator 14.0.0, SVG Export Plug-In . SVG Version: 6.00 Build 43363)  -->
<!DOCTYPE svg PUBLIC "-//W3C//DTD SVG 1.1//EN" "http://www.w3.org/Graphics/SVG/1.1/DTD/svg11.dtd">
<svg version="1.1" id="Ebene_1" xmlns="http://www.w3.org/2000/svg" xmlns:xlink="http://www.w3.org/1999/xlink" x="0px" y="0px"
	 width="638px" height="601px" viewBox="0 0 638 601" enable-background="new 0 0 638 601" xml:space="preserve">
<path d="M88.535,71.659"/>
<path d="M195.812,71.659"/>
<path d="M88.522,429.239"/>
<path d="M195.835,71.659h70.498c10.124,0,18.324-8.367,18.324-18.688V18.259c0-10.321-8.2-18.682-18.324-18.682H18.897
	c-10.112,0-18.324,8.361-18.324,18.682V52.97c0,10.321,8.212,18.688,18.324,18.688h69.625c10.124,0,18.324,8.367,18.324,18.688
	v323.055c0,10.315-8.2,18.683-18.324,18.683H18.897c-10.112,0-18.324,8.379-18.324,18.694v34.699
	c0,10.327,8.212,18.694,18.324,18.694h247.436c10.124,0,18.324-8.367,18.324-18.694v-34.699c0-10.315-8.2-18.694-18.324-18.694
	h-70.498c-10.111,0-18.323-8.367-18.323-18.683V90.347C177.512,80.025,185.724,71.659,195.835,71.659"/>
<path d="M266.513,143.746c-10.124,0-18.324,8.367-18.324,18.688v178.868c0,10.327,8.2,18.693,18.324,18.693h104.7
	c10.112,0,18.312-8.366,18.312-18.693v-34.699c0-10.315-8.199-18.683-18.312-18.683h-34.041c-10.112,0-18.313-8.367-18.313-18.694
	v-34.711c0-10.321,8.2-18.688,18.313-18.688h104.706c10.112,0,18.313,8.367,18.313,18.688v178.886
	c0,10.315-8.2,18.683-18.313,18.683h-69.637c-10.112,0-18.312,8.367-18.312,18.694v34.699c0,10.327,8.199,18.694,18.312,18.694
	h247.447c10.112,0,18.312-8.367,18.312-18.694v-34.699c0-10.327-8.199-18.694-18.312-18.694H549.19
	c-10.111,0-18.335-8.367-18.335-18.683V90.347c0-10.321,8.224-18.688,18.335-18.688h70.498c10.112,0,18.312-8.367,18.312-18.688
	V18.259c0-10.321-8.199-18.682-18.312-18.682H372.241c-10.112,0-18.312,8.361-18.312,18.682V52.97
	c0,10.321,8.199,18.688,18.312,18.688h69.637c10.112,0,18.313,8.367,18.313,18.688v34.711c0,10.321-8.296,18.688-18.408,18.688
	H266.513z"/>
<line x1="373.316" y1="71.707" x2="442.835" y2="71.707"/>
<path d="M355.005,90.395"/>
<path d="M29.046,568.048h23.559v31.005h-7.853l-1.184-7.219c-2.988,3.538-7.304,8.749-17.595,8.749
	c-13.578,0-25.914-9.944-25.914-30.121c0-15.718,8.558-30.527,27.563-30.456c17.284,0,24.121,11.451,24.742,19.388H40.58
	c0-2.235-4.004-9.442-12.323-9.442c-8.403,0-16.172,5.916-16.172,20.666c0,15.694,8.403,19.782,16.412,19.782
	c2.581,0,11.224-1.04,13.662-12.658H29.046V568.048z"/>
<path d="M87.399,586.551c-0.86,3.06-4.004,4.638-7.076,4.638c-8.869,0-9.503-7.196-9.813-10.399h28.663v-2.008
	c0-19.472-11.379-23.476-19.639-23.476c-18.288,0-20.021,16.423-20.021,21.551c0,17.547,9.024,23.32,20.81,23.32
	c7.147,0,15.479-3.371,18.384-13.626H87.399z M70.82,573.498c0.634-5.618,3.383-8.977,8.57-8.977c3.526,0,7.854,2.08,8.475,8.977
	H70.82z"/>
<path d="M117.162,541.524h-10.997v57.528h10.758v-5.366h0.167c2.666,4.793,7.53,6.49,12.085,6.49
	c12.419,0,17.594-11.224,17.594-22.914c0-14.749-8.163-21.957-17.355-21.957c-7.063,0-10.362,3.921-12.096,6.646h-0.155V541.524z
	 M135.462,578.063c0,5.045-1.961,12.897-9.024,12.897c-7.005,0-9.742-5.917-9.742-12.264c0-6.801,1.877-13.698,9.419-13.698
	C133.106,564.999,135.462,571.322,135.462,578.063"/>
<path d="M154.395,556.43h10.519v7.375h0.155c2.283-4.327,4.794-8.499,11.463-8.499c0.705,0,1.423,0.084,2.128,0.167v11.367
	c-0.944-0.155-2.128-0.155-3.144-0.155c-8.559,0-10.136,5.451-10.136,10.172v22.196h-10.985V556.43z"/>
<rect x="176.089" y="587.352" width="11.786" height="11.701"/>
<polygon points="232.124,573.259 232.124,599.053 220.339,599.053 220.339,541.524 232.124,541.524 232.124,563.314 
	254.117,563.314 254.117,541.524 265.902,541.524 265.902,599.053 254.117,599.053 254.117,573.259 "/>
<path d="M301.163,586.551c-0.86,3.06-4.016,4.638-7.075,4.638c-8.869,0-9.503-7.196-9.813-10.399h28.656v-2.008
	c0-19.472-11.373-23.476-19.62-23.476c-18.3,0-20.033,16.423-20.033,21.551c0,17.547,9.036,23.32,20.811,23.32
	c7.147,0,15.479-3.371,18.389-13.626H301.163z M284.585,573.498c0.634-5.618,3.383-8.977,8.559-8.977
	c3.538,0,7.853,2.08,8.486,8.977H284.585z"/>
<path d="M331.554,551.385h-10.997v-10.41h10.997V551.385z M331.554,599.053h-10.997V556.43h10.997V599.053z"/>
<path d="M379.867,599.053H368.87v-25.878c0-3.119-0.167-8.414-7.147-8.414c-4.877,0-8.654,3.358-8.654,9.86v24.432h-10.996V556.43
	h10.519v6.251h0.167c1.506-2.57,4.638-7.363,12.574-7.363c8.176,0,14.535,4.865,14.535,14.248V599.053z"/>
<path d="M414.649,586.551c-0.86,3.06-4.016,4.638-7.076,4.638c-8.869,0-9.49-7.196-9.801-10.399h28.663v-2.008
	c0-19.472-11.403-23.476-19.65-23.476c-18.288,0-20.01,16.423-20.01,21.551c0,17.547,9.036,23.32,20.798,23.32
	c7.148,0,15.491-3.371,18.384-13.626H414.649z M398.083,573.498c0.621-5.618,3.371-8.977,8.559-8.977
	c3.538,0,7.841,2.08,8.486,8.977H398.083z"/>
<path d="M493.515,599.053h-10.997v-25.878c0-6.335-2.772-8.414-5.977-8.414c-5.498,0-7.458,3.693-7.458,8.737v25.555h-10.997
	v-25.639c0-3.598,0-8.653-6.598-8.653c-5.188,0-6.837,3.693-6.837,8.331v25.961h-10.997V556.43h10.519v6.251h0.168
	c1.41-2.809,4.47-7.363,11.856-7.363c6.049,0,8.798,2.235,11.618,6.802c1.411-2.08,4.471-6.802,11.164-6.802
	c8.152,0,14.535,4.865,14.535,14.248V599.053z"/>
<path d="M537.405,567.641c0-10.482-10.758-12.323-16.662-12.323c-8.559,0-17.428,1.841-18.671,14.894h10.591
	c0.311-2.475,1.267-5.929,6.765-5.929c2.821,0,7.22,0.251,7.22,4.961c0,2.414-2.127,3.131-3.849,3.37l-9.896,1.519
	c-6.98,1.039-12.168,5.295-12.168,13.626c0,8.81,6.431,12.419,12.718,12.419c7.458,0,10.996-3.526,13.506-6.168
	c0.239,2.402,0.383,3.036,1.028,5.044h11.857v-1.673c-1.339-0.49-2.438-1.626-2.438-6.658V567.641z M526.647,583.754
	c0,5.199-4.948,8.402-9.825,8.402c-2.104,0-5.092-1.195-5.092-5.128c0-4.638,3.371-5.689,7.459-6.406
	c4.542-0.718,6.358-1.435,7.458-2.319V583.754z"/>
<path d="M585.001,599.053h-10.996v-25.878c0-3.119-0.168-8.414-7.148-8.414c-4.876,0-8.63,3.358-8.63,9.86v24.432H547.23V556.43
	h10.519v6.251h0.167c1.482-2.57,4.614-7.363,12.551-7.363c8.176,0,14.534,4.865,14.534,14.248V599.053z"/>
<path d="M632.979,599.053h-10.996v-25.878c0-3.119-0.144-8.414-7.147-8.414c-4.854,0-8.63,3.358-8.63,9.86v24.432h-10.997V556.43
	h10.519v6.251h0.167c1.482-2.57,4.614-7.363,12.551-7.363c8.176,0,14.534,4.865,14.534,14.248V599.053z"/>
</svg>
