<svg xmlns="http://www.w3.org/2000/svg" x="0px" y="0px" width="169.6px" height="50px" viewBox="0 0 169.6 50" style="enable-background:new 0 0 169.6 50;" xml:space="preserve"><defs><style>.hoeffnerLogo__icon1{fill: #e2001a;}
.hoeffnerLogo__icon2{fill: #fff;}</style></defs>
<rect class="hoeffnerLogo__icon1" width="169.6" height="50"></rect>
<path class="hoeffnerLogo__icon2" d="M155.49,24.09a3.58,3.58,0,0,0-2-3c-2.92-1.39-6.42,1.17-7.93,2.92V21.07h-9.17v5h4.12v9.09h-4.12v4.63h14V35.18h-4.84v-3c0-.2,0-4.89,3.49-6.06a4.17,4.17,0,0,0,2.37,1.67,3.58,3.58,0,0,0,2.84-.69,3.3,3.3,0,0,0,1.21-3m-100-6H50.88V9.19H55.5v8.95Zm-12.09,0H48V9.19H43.42v8.95Zm-3.27,17v4.63H25.83V35.18h4V26.09H18.78v9.09h4v4.63H8.5V35.18h5.24V13.82H8.5V9.19H22.69v4.63H18.78v7.25H29.87V13.82H26V9.19H40.15v4.63H34.91V35.18h5.24Zm91.22-7.43h-9.2a5.16,5.16,0,0,1,9.2,0M136.53,32a9.87,9.87,0,1,0-1,3.09l-4.87-.84A5.47,5.47,0,0,1,126.77,36a5.25,5.25,0,0,1-5.17-4h14.93ZM49.46,35.9a5.38,5.38,0,1,0-5.38-5.38,5.39,5.39,0,0,0,5.38,5.38m0-15.26a9.88,9.88,0,1,1-9.88,9.88,9.89,9.89,0,0,1,9.88-9.88M82.79,10.16a6.7,6.7,0,0,0-2,4.43v6.49H68.4V14.56a2.41,2.41,0,0,1,2-2.24,3.1,3.1,0,0,1,3.11.48c-2.17.55-2.74,5.19,1.57,5.2a3.42,3.42,0,0,0,3.36-3.16,6.05,6.05,0,0,0-1.58-4.28,7.91,7.91,0,0,0-6-2.4,7.41,7.41,0,0,0-5.49,2,6.7,6.7,0,0,0-2,4.43v6.49H59.05v5h4.27v9.09H59.05v4.63h14.1V35.18H68.4V26.09H80.74v9.09H76v4.63h14V35.18H85.83V26.09h9.82v9.09H92.79v4.63h10.78V35.18H100.7v-6.8a3.18,3.18,0,0,1,1.14-1.95,6,6,0,0,1,4.34-1.71c1.88,0.09,3.09,1.23,3.09,2.33v8.12H106.4v4.63h11V35.18h-3.08V26.09c0-2.43-2.41-5.45-6.9-5.45a8.27,8.27,0,0,0-6.71,2.95V21.07H85.83V14.56a2.41,2.41,0,0,1,2-2.24,3.1,3.1,0,0,1,3.11.48c-2.23.52-2.64,5.2,1.56,5.2a3.45,3.45,0,0,0,3.38-3.16,6.05,6.05,0,0,0-1.58-4.28,7.91,7.91,0,0,0-6-2.4,7.41,7.41,0,0,0-5.49,2" transform="translate(0.69 0)"></path></svg>