<svg width="233" height="84" viewBox="0 0 233 84" fill="none" xmlns="http://www.w3.org/2000/svg">
<path d="M106.068 42.2H107.772L113.892 59H112.512L111.132 55.208H102.72L101.34 59H99.96L106.068 42.2ZM103.188 53.912H110.652L106.92 43.676L103.188 53.912ZM115.452 59V57.704L127.32 43.496H115.452V42.2H129.036V43.496L117.168 57.704H129.036V59H115.452ZM137.88 59.312C136.536 59.312 135.38 58.984 134.412 58.328C133.452 57.672 132.712 56.792 132.192 55.688C131.68 54.576 131.424 53.344 131.424 51.992V42.2H132.72V51.992C132.72 53.088 132.92 54.092 133.32 55.004C133.72 55.916 134.304 56.648 135.072 57.2C135.84 57.744 136.776 58.016 137.88 58.016C139.008 58.016 139.952 57.74 140.712 57.188C141.48 56.636 142.06 55.904 142.452 54.992C142.844 54.072 143.04 53.072 143.04 51.992V42.2H144.336V51.992C144.336 53.008 144.188 53.96 143.892 54.848C143.596 55.728 143.168 56.504 142.608 57.176C142.056 57.848 141.38 58.372 140.58 58.748C139.788 59.124 138.888 59.312 137.88 59.312ZM147.151 59V42.2H152.683C153.483 42.2 154.207 42.364 154.855 42.692C155.511 43.012 156.031 43.484 156.415 44.108C156.807 44.724 157.003 45.484 157.003 46.388C157.003 46.932 156.903 47.444 156.703 47.924C156.503 48.396 156.247 48.796 155.935 49.124C155.623 49.444 155.303 49.64 154.975 49.712C155.463 49.848 155.891 50.072 156.259 50.384C156.627 50.688 156.935 51.052 157.183 51.476C157.431 51.892 157.615 52.336 157.735 52.808C157.855 53.28 157.915 53.752 157.915 54.224C157.915 55.192 157.711 56.036 157.303 56.756C156.903 57.468 156.367 58.02 155.695 58.412C155.023 58.804 154.275 59 153.451 59H147.151ZM148.447 57.812H153.367C153.983 57.812 154.543 57.652 155.047 57.332C155.551 57.004 155.951 56.56 156.247 56C156.551 55.432 156.703 54.792 156.703 54.08C156.703 53.44 156.551 52.84 156.247 52.28C155.951 51.72 155.551 51.268 155.047 50.924C154.543 50.572 153.983 50.396 153.367 50.396H148.447V57.812ZM148.447 49.22H152.599C153.455 49.22 154.187 48.976 154.795 48.488C155.403 47.992 155.707 47.288 155.707 46.376C155.707 45.36 155.403 44.608 154.795 44.12C154.187 43.632 153.455 43.388 152.599 43.388H148.447V49.22ZM160.566 59V42.2H161.862V59H160.566ZM108.216 83.312C107.08 83.312 106.012 83.088 105.012 82.64C104.012 82.184 103.132 81.56 102.372 80.768C101.62 79.968 101.028 79.04 100.596 77.984C100.172 76.928 99.96 75.8 99.96 74.6C99.96 73.4 100.172 72.272 100.596 71.216C101.028 70.16 101.62 69.236 102.372 68.444C103.132 67.644 104.012 67.02 105.012 66.572C106.012 66.116 107.08 65.888 108.216 65.888C109.576 65.888 110.828 66.204 111.972 66.836C113.116 67.468 114.064 68.308 114.816 69.356L113.676 69.98C113.044 69.124 112.24 68.444 111.264 67.94C110.296 67.436 109.28 67.184 108.216 67.184C107.24 67.184 106.332 67.38 105.492 67.772C104.652 68.164 103.912 68.704 103.272 69.392C102.64 70.072 102.144 70.86 101.784 71.756C101.432 72.652 101.256 73.6 101.256 74.6C101.256 75.624 101.436 76.584 101.796 77.48C102.156 78.368 102.656 79.156 103.296 79.844C103.936 80.524 104.676 81.056 105.516 81.44C106.356 81.824 107.256 82.016 108.216 82.016C109.328 82.016 110.36 81.76 111.312 81.248C112.272 80.736 113.06 80.068 113.676 79.244L114.816 79.856C114.064 80.904 113.116 81.744 111.972 82.376C110.828 83 109.576 83.312 108.216 83.312ZM125.138 83.312C124.002 83.312 122.934 83.088 121.934 82.64C120.934 82.184 120.054 81.556 119.294 80.756C118.534 79.956 117.938 79.032 117.506 77.984C117.074 76.928 116.858 75.8 116.858 74.6C116.858 73.4 117.074 72.276 117.506 71.228C117.938 70.172 118.534 69.244 119.294 68.444C120.054 67.644 120.934 67.02 121.934 66.572C122.934 66.116 124.002 65.888 125.138 65.888C126.282 65.888 127.354 66.116 128.354 66.572C129.354 67.02 130.234 67.644 130.994 68.444C131.754 69.244 132.346 70.172 132.77 71.228C133.202 72.276 133.418 73.4 133.418 74.6C133.418 75.8 133.202 76.928 132.77 77.984C132.346 79.032 131.754 79.956 130.994 80.756C130.234 81.556 129.354 82.184 128.354 82.64C127.354 83.088 126.282 83.312 125.138 83.312ZM125.138 82.016C126.114 82.016 127.022 81.82 127.862 81.428C128.71 81.036 129.45 80.5 130.082 79.82C130.722 79.132 131.222 78.34 131.582 77.444C131.942 76.548 132.122 75.6 132.122 74.6C132.122 73.584 131.938 72.628 131.57 71.732C131.21 70.836 130.71 70.048 130.07 69.368C129.43 68.688 128.69 68.156 127.85 67.772C127.01 67.38 126.106 67.184 125.138 67.184C124.162 67.184 123.25 67.38 122.402 67.772C121.562 68.164 120.822 68.704 120.182 69.392C119.55 70.072 119.054 70.86 118.694 71.756C118.334 72.652 118.154 73.6 118.154 74.6C118.154 75.616 118.334 76.572 118.694 77.468C119.062 78.364 119.566 79.156 120.206 79.844C120.846 80.524 121.586 81.056 122.426 81.44C123.274 81.824 124.178 82.016 125.138 82.016ZM135.596 83L138.848 66.2H139.7L144.584 79.052L149.456 66.2H150.308L153.572 83H152.252L149.612 69.392L144.968 81.68H144.176L139.544 69.392L136.904 83H135.596ZM156.081 83V66.2H161.265C162.153 66.2 162.953 66.416 163.665 66.848C164.385 67.272 164.957 67.852 165.381 68.588C165.805 69.324 166.017 70.148 166.017 71.06C166.017 71.988 165.801 72.82 165.369 73.556C164.937 74.292 164.361 74.872 163.641 75.296C162.921 75.72 162.129 75.932 161.265 75.932H157.377V83H156.081ZM157.377 74.636H161.181C161.829 74.636 162.421 74.48 162.957 74.168C163.493 73.848 163.921 73.416 164.241 72.872C164.561 72.328 164.721 71.708 164.721 71.012C164.721 70.324 164.561 69.708 164.241 69.164C163.921 68.612 163.493 68.18 162.957 67.868C162.421 67.548 161.829 67.388 161.181 67.388H157.377V74.636ZM171.716 66.2H173.42L179.54 83H178.16L176.78 79.208H168.368L166.988 83H165.608L171.716 66.2ZM168.836 77.912H176.3L172.568 67.676L168.836 77.912ZM181.838 83V66.2H183.254L192.662 80.66V66.2H193.958V83H192.566L183.134 68.54V83H181.838ZM197.198 83V66.2H198.494V83H197.198ZM209.537 83.312C208.401 83.312 207.333 83.088 206.333 82.64C205.333 82.184 204.453 81.556 203.693 80.756C202.933 79.956 202.337 79.032 201.905 77.984C201.473 76.928 201.257 75.8 201.257 74.6C201.257 73.4 201.473 72.276 201.905 71.228C202.337 70.172 202.933 69.244 203.693 68.444C204.453 67.644 205.333 67.02 206.333 66.572C207.333 66.116 208.401 65.888 209.537 65.888C210.681 65.888 211.753 66.116 212.753 66.572C213.753 67.02 214.633 67.644 215.393 68.444C216.153 69.244 216.745 70.172 217.169 71.228C217.601 72.276 217.817 73.4 217.817 74.6C217.817 75.8 217.601 76.928 217.169 77.984C216.745 79.032 216.153 79.956 215.393 80.756C214.633 81.556 213.753 82.184 212.753 82.64C211.753 83.088 210.681 83.312 209.537 83.312ZM209.537 82.016C210.513 82.016 211.421 81.82 212.261 81.428C213.109 81.036 213.849 80.5 214.481 79.82C215.121 79.132 215.621 78.34 215.981 77.444C216.341 76.548 216.521 75.6 216.521 74.6C216.521 73.584 216.337 72.628 215.969 71.732C215.609 70.836 215.109 70.048 214.469 69.368C213.829 68.688 213.089 68.156 212.249 67.772C211.409 67.38 210.505 67.184 209.537 67.184C208.561 67.184 207.649 67.38 206.801 67.772C205.961 68.164 205.221 68.704 204.581 69.392C203.949 70.072 203.453 70.86 203.093 71.756C202.733 72.652 202.553 73.6 202.553 74.6C202.553 75.616 202.733 76.572 203.093 77.468C203.461 78.364 203.965 79.156 204.605 79.844C205.245 80.524 205.985 81.056 206.825 81.44C207.673 81.824 208.577 82.016 209.537 82.016ZM220.323 83V66.2H221.739L231.147 80.66V66.2H232.443V83H231.051L221.619 68.54V83H220.323Z" fill="black"/>
<path d="M3.01367 36.9387H15.0956" stroke="black" stroke-width="2" stroke-linecap="round"/>
<path d="M29.9968 82.0446V57.0752L17.1094 58.6862C17.1094 58.6862 7.4439 59.0889 5.43024 57.0752C3.41659 55.0616 1.80566 37.7441 1.80566 37.7441C1.80566 37.7441 1.80566 21.2322 1.80566 17.2049C1.80566 13.1775 7.84663 6.73384 10.263 6.33111C12.6794 5.92839 19.5258 9.95569 19.5258 9.95569L18.3176 19.6212L11.4712 22.0376L17.1094 42.9796L43.287 40.1605C43.287 40.1605 39.2597 47.007 37.246 48.2151C35.2323 49.4233 30.3996 45.396 29.1914 42.9796C27.9832 40.5633 27.1777 35.7305 27.1777 26.0649C27.1777 16.3994 30.3996 2.3038 46.1061 1.49834C61.8126 0.692875 67.4508 11.1639 68.659 22.0376C69.8672 32.9114 67.4508 42.9796 67.4508 42.9796C67.4508 42.9796 75.5055 42.9796 75.5055 51.437C75.5055 59.8943 75.5055 82.0446 75.5055 82.0446" stroke="black" stroke-width="2" stroke-linecap="round"/>
<path d="M18.7207 81.6418L20.7344 58.6862" stroke="black" stroke-width="2" stroke-linecap="round"/>
<mask id="mask0_0_1" style="mask-type:alpha" maskUnits="userSpaceOnUse" x="36" y="52" width="24" height="23">
<path d="M47.4204 72.7605L48.0845 73.3505L48.7486 72.7605L50.1501 71.5155L50.152 71.5139C51.7867 70.0546 53.1455 68.7891 54.2252 67.7193C55.3097 66.6447 56.1916 65.6614 56.8587 64.7717C57.5249 63.883 58.0237 63.0234 58.3177 62.1963C58.6051 61.3881 58.75 60.5567 58.75 59.7065C58.75 57.9543 58.1463 56.4408 56.9316 55.2372C55.7173 54.0341 54.1944 53.4392 52.434 53.4392C51.4515 53.4392 50.5105 53.6462 49.621 54.0588C49.0602 54.3189 48.5475 54.6471 48.0845 55.0416C47.6215 54.6471 47.1088 54.3189 46.548 54.0588C45.6585 53.6462 44.7174 53.4392 43.735 53.4392C41.9746 53.4392 40.4516 54.0341 39.2374 55.2372C38.0227 56.4408 37.4189 57.9543 37.4189 59.7065C37.4189 60.5567 37.5639 61.3881 37.8513 62.1963C38.1453 63.0234 38.6441 63.883 39.3103 64.7717C39.9774 65.6614 40.8592 66.6447 41.9438 67.7193C43.0235 68.7891 44.3823 70.0546 46.017 71.5139L46.0189 71.5155L47.4204 72.7605Z" fill="#949494" stroke="black" stroke-width="2"/>
</mask>
<g mask="url(#mask0_0_1)">
<rect x="27.875" y="66.0833" width="30.5506" height="5.07319" transform="rotate(-45 27.875 66.0833)" fill="#EEFF27"/>
<rect x="30.8838" y="70.2093" width="30.5506" height="5.07319" transform="rotate(-45 30.8838 70.2093)" fill="#00FFC2"/>
<rect x="35.7344" y="72.2156" width="30.5506" height="5.07319" transform="rotate(-45 35.7344 72.2156)" fill="#7513F1"/>
<rect x="39.2539" y="75.8379" width="30.5506" height="5.07319" transform="rotate(-45 39.2539 75.8379)" fill="#FF007A"/>
</g>
<path d="M47.1241 73.9294L47.7913 74.527L48.4585 73.9294L49.9874 72.5599L49.9893 72.5582C51.7718 70.9536 53.2529 69.5628 54.4292 68.3876C55.6103 67.2075 56.5689 66.1295 57.2928 65.1559C58.0159 64.1833 58.5539 63.2469 58.87 62.3503C59.1795 61.4725 59.3355 60.57 59.3355 59.6475C59.3355 57.7477 58.6876 56.11 57.3816 54.8052C56.0757 53.5004 54.4368 52.8534 52.5362 52.8534C51.4763 52.8534 50.4618 53.0785 49.5029 53.527C48.8756 53.8203 48.3045 54.1931 47.7913 54.6432C47.2781 54.1931 46.707 53.8203 46.0797 53.527C45.1208 53.0785 44.1063 52.8534 43.0464 52.8534C41.1458 52.8534 39.5069 53.5004 38.201 54.8052C36.895 56.11 36.2471 57.7477 36.2471 59.6475C36.2471 60.57 36.4031 61.4725 36.7126 62.3503C37.0287 63.2469 37.5667 64.1833 38.2898 65.1559C39.0138 66.1295 39.9723 67.2075 41.1534 68.3876C42.3297 69.5628 43.8108 70.9536 45.5934 72.5582L45.5952 72.5599L47.1241 73.9294Z" stroke="black" stroke-width="2"/>
<path d="M51.2268 39.8957C64.0361 37.8712 62.4915 20.4276 61.7138 15.1116C61.6083 14.391 60.7836 14.0576 60.1754 14.458C57.9888 15.8974 53.3661 18.6871 49.1806 19.561C44.5493 20.5281 37.511 20.7133 34.985 20.7488C34.4544 20.7562 34.0225 21.1717 34.0246 21.7024C34.0416 25.8886 35.1181 42.4418 51.2268 39.8957Z" stroke="black" stroke-width="2" stroke-linecap="round"/>
<path d="M42.0791 24.0513V26.8704" stroke="black" stroke-width="2" stroke-linecap="round"/>
<path d="M54.1611 24.0513V26.8704" stroke="black" stroke-width="2" stroke-linecap="round"/>
<path d="M65.8398 82.85V57.8807" stroke="black" stroke-width="2" stroke-linecap="round"/>
<path d="M41.6758 32.1059C43.2867 33.9853 48.1195 36.697 54.5632 32.5086" stroke="black" stroke-width="2" stroke-linecap="round"/>
<path d="M55.0105 40.1158L66.4629 42.592C67.2366 42.7593 67.4988 43.6958 66.8841 44.1947C64.4356 46.182 60.5774 48.6178 58.9927 48.6178C57.383 48.6178 55.1029 44.3356 53.9201 41.3527C53.6395 40.645 54.2664 39.9549 55.0105 40.1158Z" stroke="black" stroke-width="2" stroke-linecap="round"/>
</svg>
