<svg width="225" height="83" viewBox="0 0 225 83" fill="none" xmlns="http://www.w3.org/2000/svg">
<path d="M96.568 41.7454H98.272L104.392 58.5454H103.012L101.632 54.7534H93.22L91.84 58.5454H90.46L96.568 41.7454ZM93.688 53.4574H101.152L97.42 43.2214L93.688 53.4574ZM105.952 58.5454V57.2494L117.82 43.0414H105.952V41.7454H119.536V43.0414L107.668 57.2494H119.536V58.5454H105.952ZM128.38 58.8574C127.036 58.8574 125.88 58.5294 124.912 57.8734C123.952 57.2174 123.212 56.3374 122.692 55.2334C122.18 54.1214 121.924 52.8894 121.924 51.5374V41.7454H123.22V51.5374C123.22 52.6334 123.42 53.6374 123.82 54.5494C124.22 55.4614 124.804 56.1934 125.572 56.7454C126.34 57.2894 127.276 57.5614 128.38 57.5614C129.508 57.5614 130.452 57.2854 131.212 56.7334C131.98 56.1814 132.56 55.4494 132.952 54.5374C133.344 53.6174 133.54 52.6174 133.54 51.5374V41.7454H134.836V51.5374C134.836 52.5534 134.688 53.5054 134.392 54.3934C134.096 55.2734 133.668 56.0494 133.108 56.7214C132.556 57.3934 131.88 57.9174 131.08 58.2934C130.288 58.6694 129.388 58.8574 128.38 58.8574ZM137.651 58.5454V41.7454H143.183C143.983 41.7454 144.707 41.9094 145.355 42.2374C146.011 42.5574 146.531 43.0294 146.915 43.6534C147.307 44.2694 147.503 45.0294 147.503 45.9334C147.503 46.4774 147.403 46.9894 147.203 47.4694C147.003 47.9414 146.747 48.3414 146.435 48.6694C146.123 48.9894 145.803 49.1854 145.475 49.2574C145.963 49.3934 146.391 49.6174 146.759 49.9294C147.127 50.2334 147.435 50.5974 147.683 51.0214C147.931 51.4374 148.115 51.8814 148.235 52.3534C148.355 52.8254 148.415 53.2974 148.415 53.7694C148.415 54.7374 148.211 55.5814 147.803 56.3014C147.403 57.0134 146.867 57.5654 146.195 57.9574C145.523 58.3494 144.775 58.5454 143.951 58.5454H137.651ZM138.947 57.3574H143.867C144.483 57.3574 145.043 57.1974 145.547 56.8774C146.051 56.5494 146.451 56.1054 146.747 55.5454C147.051 54.9774 147.203 54.3374 147.203 53.6254C147.203 52.9854 147.051 52.3854 146.747 51.8254C146.451 51.2654 146.051 50.8134 145.547 50.4694C145.043 50.1174 144.483 49.9414 143.867 49.9414H138.947V57.3574ZM138.947 48.7654H143.099C143.955 48.7654 144.687 48.5214 145.295 48.0334C145.903 47.5374 146.207 46.8334 146.207 45.9214C146.207 44.9054 145.903 44.1534 145.295 43.6654C144.687 43.1774 143.955 42.9334 143.099 42.9334H138.947V48.7654ZM151.066 58.5454V41.7454H152.362V58.5454H151.066ZM98.716 82.8574C97.58 82.8574 96.512 82.6334 95.512 82.1854C94.512 81.7294 93.632 81.1054 92.872 80.3134C92.12 79.5134 91.528 78.5854 91.096 77.5294C90.672 76.4734 90.46 75.3454 90.46 74.1454C90.46 72.9454 90.672 71.8174 91.096 70.7614C91.528 69.7054 92.12 68.7814 92.872 67.9894C93.632 67.1894 94.512 66.5654 95.512 66.1174C96.512 65.6614 97.58 65.4334 98.716 65.4334C100.076 65.4334 101.328 65.7494 102.472 66.3814C103.616 67.0134 104.564 67.8534 105.316 68.9014L104.176 69.5254C103.544 68.6694 102.74 67.9894 101.764 67.4854C100.796 66.9814 99.78 66.7294 98.716 66.7294C97.74 66.7294 96.832 66.9254 95.992 67.3174C95.152 67.7094 94.412 68.2494 93.772 68.9374C93.14 69.6174 92.644 70.4054 92.284 71.3014C91.932 72.1974 91.756 73.1454 91.756 74.1454C91.756 75.1694 91.936 76.1294 92.296 77.0254C92.656 77.9134 93.156 78.7014 93.796 79.3894C94.436 80.0694 95.176 80.6014 96.016 80.9854C96.856 81.3694 97.756 81.5614 98.716 81.5614C99.828 81.5614 100.86 81.3054 101.812 80.7934C102.772 80.2814 103.56 79.6134 104.176 78.7894L105.316 79.4014C104.564 80.4494 103.616 81.2894 102.472 81.9214C101.328 82.5454 100.076 82.8574 98.716 82.8574ZM115.638 82.8574C114.502 82.8574 113.434 82.6334 112.434 82.1854C111.434 81.7294 110.554 81.1014 109.794 80.3014C109.034 79.5014 108.438 78.5774 108.006 77.5294C107.574 76.4734 107.358 75.3454 107.358 74.1454C107.358 72.9454 107.574 71.8214 108.006 70.7734C108.438 69.7174 109.034 68.7894 109.794 67.9894C110.554 67.1894 111.434 66.5654 112.434 66.1174C113.434 65.6614 114.502 65.4334 115.638 65.4334C116.782 65.4334 117.854 65.6614 118.854 66.1174C119.854 66.5654 120.734 67.1894 121.494 67.9894C122.254 68.7894 122.846 69.7174 123.27 70.7734C123.702 71.8214 123.918 72.9454 123.918 74.1454C123.918 75.3454 123.702 76.4734 123.27 77.5294C122.846 78.5774 122.254 79.5014 121.494 80.3014C120.734 81.1014 119.854 81.7294 118.854 82.1854C117.854 82.6334 116.782 82.8574 115.638 82.8574ZM115.638 81.5614C116.614 81.5614 117.522 81.3654 118.362 80.9734C119.21 80.5814 119.95 80.0454 120.582 79.3654C121.222 78.6774 121.722 77.8854 122.082 76.9894C122.442 76.0934 122.622 75.1454 122.622 74.1454C122.622 73.1294 122.438 72.1734 122.07 71.2774C121.71 70.3814 121.21 69.5934 120.57 68.9134C119.93 68.2334 119.19 67.7014 118.35 67.3174C117.51 66.9254 116.606 66.7294 115.638 66.7294C114.662 66.7294 113.75 66.9254 112.902 67.3174C112.062 67.7094 111.322 68.2494 110.682 68.9374C110.05 69.6174 109.554 70.4054 109.194 71.3014C108.834 72.1974 108.654 73.1454 108.654 74.1454C108.654 75.1614 108.834 76.1174 109.194 77.0134C109.562 77.9094 110.066 78.7014 110.706 79.3894C111.346 80.0694 112.086 80.6014 112.926 80.9854C113.774 81.3694 114.678 81.5614 115.638 81.5614ZM126.096 82.5454L129.348 65.7454H130.2L135.084 78.5974L139.956 65.7454H140.808L144.072 82.5454H142.752L140.112 68.9374L135.468 81.2254H134.676L130.044 68.9374L127.404 82.5454H126.096ZM146.581 82.5454V65.7454H151.765C152.653 65.7454 153.453 65.9614 154.165 66.3934C154.885 66.8174 155.457 67.3974 155.881 68.1334C156.305 68.8694 156.517 69.6934 156.517 70.6054C156.517 71.5334 156.301 72.3654 155.869 73.1014C155.437 73.8374 154.861 74.4174 154.141 74.8414C153.421 75.2654 152.629 75.4774 151.765 75.4774H147.877V82.5454H146.581ZM147.877 74.1814H151.681C152.329 74.1814 152.921 74.0254 153.457 73.7134C153.993 73.3934 154.421 72.9614 154.741 72.4174C155.061 71.8734 155.221 71.2534 155.221 70.5574C155.221 69.8694 155.061 69.2534 154.741 68.7094C154.421 68.1574 153.993 67.7254 153.457 67.4134C152.921 67.0934 152.329 66.9334 151.681 66.9334H147.877V74.1814ZM162.216 65.7454H163.92L170.04 82.5454H168.66L167.28 78.7534H158.868L157.488 82.5454H156.108L162.216 65.7454ZM159.336 77.4574H166.8L163.068 67.2214L159.336 77.4574ZM172.338 82.5454V65.7454H173.754L183.162 80.2054V65.7454H184.458V82.5454H183.066L173.634 68.0854V82.5454H172.338ZM187.698 82.5454V65.7454H188.994V82.5454H187.698ZM200.037 82.8574C198.901 82.8574 197.833 82.6334 196.833 82.1854C195.833 81.7294 194.953 81.1014 194.193 80.3014C193.433 79.5014 192.837 78.5774 192.405 77.5294C191.973 76.4734 191.757 75.3454 191.757 74.1454C191.757 72.9454 191.973 71.8214 192.405 70.7734C192.837 69.7174 193.433 68.7894 194.193 67.9894C194.953 67.1894 195.833 66.5654 196.833 66.1174C197.833 65.6614 198.901 65.4334 200.037 65.4334C201.181 65.4334 202.253 65.6614 203.253 66.1174C204.253 66.5654 205.133 67.1894 205.893 67.9894C206.653 68.7894 207.245 69.7174 207.669 70.7734C208.101 71.8214 208.317 72.9454 208.317 74.1454C208.317 75.3454 208.101 76.4734 207.669 77.5294C207.245 78.5774 206.653 79.5014 205.893 80.3014C205.133 81.1014 204.253 81.7294 203.253 82.1854C202.253 82.6334 201.181 82.8574 200.037 82.8574ZM200.037 81.5614C201.013 81.5614 201.921 81.3654 202.761 80.9734C203.609 80.5814 204.349 80.0454 204.981 79.3654C205.621 78.6774 206.121 77.8854 206.481 76.9894C206.841 76.0934 207.021 75.1454 207.021 74.1454C207.021 73.1294 206.837 72.1734 206.469 71.2774C206.109 70.3814 205.609 69.5934 204.969 68.9134C204.329 68.2334 203.589 67.7014 202.749 67.3174C201.909 66.9254 201.005 66.7294 200.037 66.7294C199.061 66.7294 198.149 66.9254 197.301 67.3174C196.461 67.7094 195.721 68.2494 195.081 68.9374C194.449 69.6174 193.953 70.4054 193.593 71.3014C193.233 72.1974 193.053 73.1454 193.053 74.1454C193.053 75.1614 193.233 76.1174 193.593 77.0134C193.961 77.9094 194.465 78.7014 195.105 79.3894C195.745 80.0694 196.485 80.6014 197.325 80.9854C198.173 81.3694 199.077 81.5614 200.037 81.5614ZM210.823 82.5454V65.7454H212.239L221.647 80.2054V65.7454H222.943V82.5454H221.551L212.119 68.0854V82.5454H210.823Z" fill="black"/>
<path d="M2.5 34.4443H13.5" stroke="black" stroke-width="2" stroke-linecap="round"/>
<path d="M27.5 80.9443V56.9443C27.5 56.9443 17 56.9443 11 54.9443C5 52.9443 2.5 36.9443 2.5 36.9443C2.5 36.9443 1 19.7775 1 15.7502C1 11.7229 3.5 6.44434 8 5.94434C12.5 5.44434 17.5 8.94434 17.5 8.94434L16.5 17.4443L10.6655 20.5829C10.6655 20.5829 13.8684 38.5924 16.5 40.9443C19.1316 43.2963 41.7634 39.4128 41.7634 39.4128M26.4882 41.2128C25.28 38.7964 24.3721 35.2758 24.3721 25.6103C24.3721 15.9447 27.5939 1.84912 43.3004 1.04366C59.0069 0.238196 64.6452 10.7092 65.8534 21.5829C67.0616 32.4567 65.1535 41.5218 65.1535 41.5218C65.1535 41.5218 72.5 42.487 72.5 50.9443C72.5 59.4017 72.5 80.9443 72.5 80.9443" stroke="black" stroke-width="2" stroke-linecap="round"/>
<path d="M48.4212 39.4411C61.4827 37.3767 58.7625 19.8895 57.7713 15.1339C57.6417 14.5122 56.966 14.2113 56.398 14.4954L51.1422 17.1233C50.455 17.4669 49.8415 16.5484 50.4221 16.0452C50.9958 15.548 50.4029 14.6371 49.716 14.9603L41.0271 19.0493C40.0616 19.5036 39.151 18.3324 39.8293 17.5087L40.1826 17.0798C40.9007 16.2078 39.8483 15.0003 38.8864 15.5925L31.6809 20.0286C31.4021 20.2002 31.2254 20.4942 31.2209 20.8216C31.1754 24.1331 31.6933 42.0851 48.4212 39.4411Z" stroke="black" stroke-width="2" stroke-linecap="round"/>
<path d="M39.2734 23.5967V26.4158" stroke="black" stroke-width="2" stroke-linecap="round"/>
<path d="M51.3555 23.5967V26.4158" stroke="black" stroke-width="2" stroke-linecap="round"/>
<path d="M63.5 80.9443L63.5 56.9443" stroke="black" stroke-width="2" stroke-linecap="round"/>
<path d="M40 32.4443C42 34.9443 45.5 37.9443 49 33.9443" stroke="black" stroke-width="2" stroke-linecap="round"/>
<path d="M64.0991 41.33L48.5 39.4443" stroke="black" stroke-width="2" stroke-linecap="round"/>
<mask id="mask0_210_45" style="mask-type:alpha" maskUnits="userSpaceOnUse" x="34" y="50" width="24" height="23">
<path d="M45.2026 70.836L45.8667 71.426L46.5309 70.836L47.9324 69.591L47.9342 69.5893C49.5689 68.13 50.9277 66.8646 52.0074 65.7948C53.092 64.7202 53.9738 63.7369 54.6409 62.8471C55.3072 61.9584 55.8059 61.0988 56.0999 60.2718C56.3873 59.4636 56.5323 58.6321 56.5323 57.782C56.5323 56.0297 55.9285 54.5163 54.7138 53.3127C53.4996 52.1096 51.9766 51.5146 50.2162 51.5146C49.2338 51.5146 48.2927 51.7217 47.4032 52.1342C46.8424 52.3943 46.3297 52.7225 45.8667 53.117C45.4038 52.7225 44.891 52.3943 44.3302 52.1342C43.4407 51.7217 42.4997 51.5146 41.5172 51.5146C39.7568 51.5146 38.2339 52.1096 37.0197 53.3127C35.8049 54.5163 35.2012 56.0297 35.2012 57.782C35.2012 58.6321 35.3462 59.4636 35.6335 60.2718C35.9275 61.0988 36.4263 61.9584 37.0925 62.8471C37.7596 63.7369 38.6415 64.7202 39.726 65.7948C40.8057 66.8646 42.1645 68.13 43.7992 69.5894L43.8011 69.591L45.2026 70.836Z" fill="#949494" stroke="black" stroke-width="2"/>
</mask>
<g mask="url(#mask0_210_45)">
<rect x="19.2715" y="69.5442" width="45" height="7.60261" transform="rotate(-45 19.2715 69.5442)" fill="#FF0075"/>
<rect x="22.2744" y="76.4458" width="45.5785" height="7.71223" transform="rotate(-45 22.2744 76.4458)" fill="#7D16FF"/>
<rect x="30.1914" y="78.825" width="45.7625" height="8.25913" transform="rotate(-45 30.1914 78.825)" fill="#0BF5BD"/>
<line x1="34.9433" y1="63.1611" x2="45.9433" y2="52.1611" stroke="black"/>
<path d="M40.6631 67.8428L55.3391 53.3632" stroke="black"/>
</g>
<path d="M44.7882 71.1751L45.4554 71.7727L46.1226 71.1751L47.6515 69.8056L47.6533 69.8039C49.4359 68.1993 50.917 66.8085 52.0933 65.6333C53.2744 64.4532 54.2329 63.3753 54.9568 62.4016C55.68 61.4291 56.2179 60.4927 56.5341 59.596C56.8436 58.7182 56.9996 57.8157 56.9996 56.8932C56.9996 54.9935 56.3516 53.3557 55.0457 52.0509C53.7397 50.7462 52.1009 50.0991 50.2003 50.0991C49.1404 50.0991 48.1258 50.3243 47.1669 50.7727C46.5397 51.066 45.9685 51.4389 45.4554 51.889C44.9422 51.4389 44.371 51.066 43.7438 50.7727C42.7849 50.3243 41.7704 50.0991 40.7105 50.0991C38.8098 50.0991 37.171 50.7462 35.8651 52.0509C34.5591 53.3557 33.9111 54.9935 33.9111 56.8932C33.9111 57.8157 34.0671 58.7182 34.3766 59.596C34.6928 60.4927 35.2307 61.4291 35.9539 62.4016C36.6778 63.3753 37.6363 64.4532 38.8174 65.6333C39.9937 66.8085 41.4748 68.1993 43.2574 69.8039L43.2592 69.8056L44.7882 71.1751Z" stroke="black" stroke-width="2"/>
</svg>
