<svg width="77" height="84" viewBox="0 0 77 84" fill="none" xmlns="http://www.w3.org/2000/svg">
<path d="M3.01367 36.9387H15.0956" stroke="black" stroke-width="2" stroke-linecap="round"/>
<path d="M29.9968 82.0446V57.0752L17.1094 58.6862C17.1094 58.6862 7.4439 59.0889 5.43024 57.0752C3.41659 55.0616 1.80566 37.7441 1.80566 37.7441C1.80566 37.7441 1.80566 21.2322 1.80566 17.2049C1.80566 13.1775 7.84663 6.73384 10.263 6.33111C12.6794 5.92839 19.5258 9.95569 19.5258 9.95569L18.3176 19.6212L11.4712 22.0376L17.1094 42.9796L43.287 40.1605C43.287 40.1605 39.2597 47.007 37.246 48.2151C35.2323 49.4233 30.3996 45.396 29.1914 42.9796C27.9832 40.5633 27.1777 35.7305 27.1777 26.0649C27.1777 16.3994 30.3996 2.3038 46.1061 1.49834C61.8126 0.692875 67.4508 11.1639 68.659 22.0376C69.8672 32.9114 67.4508 42.9796 67.4508 42.9796C67.4508 42.9796 75.5055 42.9796 75.5055 51.437C75.5055 59.8943 75.5055 82.0446 75.5055 82.0446" stroke="black" stroke-width="2" stroke-linecap="round"/>
<path d="M18.7207 81.6418L20.7344 58.6862" stroke="black" stroke-width="2" stroke-linecap="round"/>
<mask id="mask0_170_477" style="mask-type:alpha" maskUnits="userSpaceOnUse" x="36" y="52" width="24" height="23">
<path d="M47.4204 72.7605L48.0845 73.3505L48.7486 72.7605L50.1501 71.5155L50.152 71.5139C51.7867 70.0546 53.1455 68.7891 54.2252 67.7193C55.3097 66.6447 56.1916 65.6614 56.8587 64.7717C57.5249 63.883 58.0237 63.0234 58.3177 62.1963L57.3755 61.8614L58.3177 62.1963C58.6051 61.3881 58.75 60.5567 58.75 59.7065C58.75 57.9543 58.1463 56.4408 56.9316 55.2372C55.7173 54.0341 54.1944 53.4392 52.434 53.4392C51.4515 53.4392 50.5105 53.6462 49.621 54.0588C49.0602 54.3189 48.5475 54.6471 48.0845 55.0416C47.6215 54.6471 47.1088 54.3189 46.548 54.0588C45.6585 53.6462 44.7174 53.4392 43.735 53.4392C41.9746 53.4392 40.4516 54.0341 39.2374 55.2372C38.0227 56.4408 37.4189 57.9543 37.4189 59.7065C37.4189 60.5567 37.5639 61.3881 37.8513 62.1963C38.1453 63.0234 38.6441 63.883 39.3103 64.7717C39.9774 65.6614 40.8592 66.6447 41.9438 67.7193C43.0235 68.7891 44.3823 70.0546 46.017 71.5139L46.0189 71.5155L47.4204 72.7605Z" fill="#949494" stroke="black" stroke-width="2"/>
</mask>
<g mask="url(#mask0_170_477)">
<rect x="27.875" y="66.0833" width="30.5506" height="5.07319" transform="rotate(-45 27.875 66.0833)" fill="#EEFF27"/>
<rect x="30.8838" y="70.2093" width="30.5506" height="5.07319" transform="rotate(-45 30.8838 70.2093)" fill="#00FFC2"/>
<rect x="35.7344" y="72.2156" width="30.5506" height="5.07319" transform="rotate(-45 35.7344 72.2156)" fill="#7513F1"/>
<rect x="39.2539" y="75.8379" width="30.5506" height="5.07319" transform="rotate(-45 39.2539 75.8379)" fill="#FF007A"/>
</g>
<path d="M47.1241 73.9294L47.7913 74.527L48.4585 73.9294L49.9874 72.5599L49.9892 72.5582C51.7718 70.9536 53.2529 69.5628 54.4292 68.3876C55.6104 67.2075 56.5689 66.1295 57.2928 65.1559C58.0159 64.1833 58.5539 63.2469 58.87 62.3503C59.1795 61.4725 59.3355 60.57 59.3355 59.6475C59.3355 57.7477 58.6876 56.11 57.3816 54.8052C56.0757 53.5004 54.4368 52.8534 52.5362 52.8534C51.4763 52.8534 50.4618 53.0785 49.5029 53.527C48.8756 53.8203 48.3045 54.1931 47.7913 54.6432C47.2781 54.1931 46.707 53.8203 46.0797 53.527C45.1208 53.0785 44.1063 52.8534 43.0464 52.8534C41.1458 52.8534 39.5069 53.5004 38.201 54.8052C36.895 56.11 36.2471 57.7477 36.2471 59.6475C36.2471 60.57 36.4031 61.4725 36.7126 62.3503C37.0287 63.2469 37.5667 64.1833 38.2898 65.1559C39.0138 66.1295 39.9723 67.2075 41.1534 68.3876C42.3297 69.5628 43.8108 70.9536 45.5934 72.5582L45.5952 72.5599L47.1241 73.9294Z" stroke="black" stroke-width="2"/>
<path d="M51.2268 39.8957C64.0361 37.8712 62.4915 20.4276 61.7138 15.1116C61.6083 14.391 60.7836 14.0576 60.1754 14.458C57.9888 15.8974 53.3661 18.6871 49.1806 19.561C44.5493 20.5281 37.511 20.7133 34.985 20.7488C34.4544 20.7562 34.0225 21.1717 34.0246 21.7024C34.0416 25.8886 35.1181 42.4418 51.2268 39.8957Z" stroke="black" stroke-width="2" stroke-linecap="round"/>
<path d="M42.0791 24.0513V26.8704" stroke="black" stroke-width="2" stroke-linecap="round"/>
<path d="M54.1611 24.0513V26.8704" stroke="black" stroke-width="2" stroke-linecap="round"/>
<path d="M65.8398 82.85V57.8807" stroke="black" stroke-width="2" stroke-linecap="round"/>
<path d="M41.6758 32.1059C43.2867 33.9853 48.1195 36.697 54.5632 32.5086" stroke="black" stroke-width="2" stroke-linecap="round"/>
<path d="M55.0105 40.1158L66.4629 42.592C67.2366 42.7593 67.4988 43.6958 66.8841 44.1947C64.4356 46.182 60.5774 48.6178 58.9927 48.6178C57.383 48.6178 55.1029 44.3356 53.9201 41.3527C53.6395 40.645 54.2664 39.9549 55.0105 40.1158Z" stroke="black" stroke-width="2" stroke-linecap="round"/>
</svg>
