<svg width="26" height="25" viewBox="0 0 26 25" fill="none" xmlns="http://www.w3.org/2000/svg">
<mask id="mask0_170_484" style="mask-type:alpha" maskUnits="userSpaceOnUse" x="1" y="1" width="24" height="23">
<path d="M12.4204 21.7605L13.0845 22.3505L13.7486 21.7605L15.1501 20.5155L15.152 20.5139C16.7867 19.0546 18.1455 17.7891 19.2252 16.7193C20.3097 15.6447 21.1916 14.6614 21.8587 13.7717C22.5249 12.883 23.0237 12.0234 23.3177 11.1963L22.3755 10.8614L23.3177 11.1963C23.6051 10.3881 23.75 9.55666 23.75 8.70654C23.75 6.95425 23.1463 5.44085 21.9316 4.23723C20.7173 3.03413 19.1944 2.43921 17.434 2.43921C16.4515 2.43921 15.5105 2.64623 14.621 3.05876C14.0602 3.31887 13.5475 3.64706 13.0845 4.04156C12.6215 3.64706 12.1088 3.31887 11.548 3.05876C10.6585 2.64623 9.71745 2.43921 8.735 2.43921C6.97461 2.43921 5.45165 3.03413 4.23742 4.23723C3.02267 5.44085 2.41895 6.95425 2.41895 8.70654C2.41895 9.55666 2.56392 10.3881 2.85126 11.1963C3.1453 12.0234 3.64406 12.883 4.31031 13.7717C4.9774 14.6614 5.85923 15.6447 6.94378 16.7193C8.02346 17.7891 9.38232 19.0546 11.017 20.5139L11.0189 20.5155L12.4204 21.7605Z" fill="#949494" stroke="black" stroke-width="2"/>
</mask>
<g mask="url(#mask0_170_484)">
<rect x="-7.125" y="15.0833" width="30.5506" height="5.07319" transform="rotate(-45 -7.125 15.0833)" fill="#EEFF27"/>
<rect x="-4.11621" y="19.2093" width="30.5506" height="5.07319" transform="rotate(-45 -4.11621 19.2093)" fill="#00FFC2"/>
<rect x="0.734375" y="21.2156" width="30.5506" height="5.07319" transform="rotate(-45 0.734375 21.2156)" fill="#7513F1"/>
<rect x="4.25391" y="24.8379" width="30.5506" height="5.07319" transform="rotate(-45 4.25391 24.8379)" fill="#FF007A"/>
</g>
<path d="M12.1241 22.9294L12.7913 23.527L13.4585 22.9294L14.9874 21.5599L14.9892 21.5582C16.7718 19.9536 18.2529 18.5628 19.4292 17.3876C20.6104 16.2075 21.5689 15.1295 22.2928 14.1559C23.0159 13.1833 23.5539 12.2469 23.87 11.3503C24.1795 10.4725 24.3355 9.57001 24.3355 8.64745C24.3355 6.74775 23.6876 5.10996 22.3816 3.80517C21.0757 2.50044 19.4368 1.85339 17.5362 1.85339C16.4763 1.85339 15.4618 2.07853 14.5029 2.52696C13.8756 2.82031 13.3045 3.19312 12.7913 3.64325C12.2781 3.19312 11.707 2.82031 11.0797 2.52696C10.1208 2.07853 9.10629 1.85339 8.0464 1.85339C6.14576 1.85339 4.50692 2.50044 3.201 3.80517C1.89503 5.10996 1.24707 6.74775 1.24707 8.64745C1.24707 9.57001 1.40306 10.4725 1.71257 11.3503C2.02872 12.2469 2.56669 13.1833 3.28983 14.1559C4.01375 15.1295 4.97225 16.2075 6.15339 17.3876C7.32966 18.5628 8.81076 19.9536 10.5934 21.5582L10.5952 21.5599L12.1241 22.9294Z" stroke="black" stroke-width="2"/>
</svg>
