<svg width="26" height="25" viewBox="0 0 26 25" fill="none" xmlns="http://www.w3.org/2000/svg">
<mask id="mask0_218_58" style="mask-type:alpha" maskUnits="userSpaceOnUse" x="2" y="1" width="24" height="23">
<path d="M13.2026 21.836L13.8667 22.426L14.5309 21.836L15.9324 20.591L15.9342 20.5893C17.5689 19.13 18.9277 17.8646 20.0074 16.7948C21.092 15.7202 21.9738 14.7369 22.6409 13.8471C23.3072 12.9584 23.8059 12.0988 24.0999 11.2718C24.3873 10.4636 24.5323 9.6321 24.5323 8.78198C24.5323 7.02969 23.9285 5.51629 22.7138 4.31266C21.4996 3.10957 19.9766 2.51465 18.2162 2.51465C17.2338 2.51465 16.2927 2.72167 15.4032 3.1342C14.8424 3.39431 14.3297 3.7225 13.8667 4.117C13.4038 3.7225 12.891 3.39431 12.3302 3.1342C11.4407 2.72167 10.4997 2.51465 9.51722 2.51465C7.75683 2.51465 6.23387 3.10957 5.01965 4.31266C3.8049 5.51629 3.20117 7.02969 3.20117 8.78198C3.20117 9.6321 3.34615 10.4636 3.63349 11.2718C3.92753 12.0988 4.42628 12.9584 5.09254 13.8471C5.75963 14.7369 6.64146 15.7202 7.726 16.7948C8.80569 17.8646 10.1645 19.13 11.7992 20.5894L11.8011 20.591L13.2026 21.836Z" fill="#949494" stroke="black" stroke-width="2"/>
</mask>
<g mask="url(#mask0_218_58)">
<rect x="-12.7285" y="20.5442" width="45" height="7.60261" transform="rotate(-45 -12.7285 20.5442)" fill="#FF0075"/>
<rect x="-9.72559" y="27.4458" width="45.5785" height="7.71223" transform="rotate(-45 -9.72559 27.4458)" fill="#7D16FF"/>
<rect x="-1.80859" y="29.825" width="45.7625" height="8.25913" transform="rotate(-45 -1.80859 29.825)" fill="#0BF5BD"/>
<line x1="2.94332" y1="14.1611" x2="13.9433" y2="3.16109" stroke="black"/>
<path d="M8.66309 18.8428L23.3391 4.36317" stroke="black"/>
</g>
<path d="M12.7882 22.1751L13.4554 22.7727L14.1226 22.1751L15.6515 20.8056L15.6533 20.8039C17.4359 19.1993 18.917 17.8085 20.0933 16.6333C21.2744 15.4532 22.2329 14.3753 22.9568 13.4016C23.68 12.4291 24.2179 11.4927 24.5341 10.596C24.8436 9.71819 24.9996 8.81573 24.9996 7.89318C24.9996 5.99348 24.3516 4.35568 23.0457 3.0509C21.7397 1.74617 20.1009 1.09912 18.2003 1.09912C17.1404 1.09912 16.1258 1.32426 15.1669 1.77269C14.5397 2.06604 13.9685 2.43885 13.4554 2.88897C12.9422 2.43885 12.371 2.06604 11.7438 1.77269C10.7849 1.32426 9.77036 1.09912 8.71046 1.09912C6.80982 1.09912 5.17098 1.74617 3.86506 3.0509C2.5591 4.35568 1.91113 5.99348 1.91113 7.89318C1.91113 8.81573 2.06712 9.71819 2.37663 10.596C2.69278 11.4927 3.23075 12.4291 3.95389 13.4016C4.67781 14.3753 5.63631 15.4532 6.81745 16.6333C7.99372 17.8085 9.47482 19.1993 11.2574 20.8039L11.2592 20.8056L12.7882 22.1751Z" stroke="black" stroke-width="2"/>
</svg>
