<svg width="900" height="900" viewBox="0 0 900 900" fill="none" xmlns="http://www.w3.org/2000/svg">
<path fill-rule="evenodd" clip-rule="evenodd" d="M146.416 530.893C56.7905 240.753 242.784 121.7 502.983 107.325C185.084 11.8256 -83.6437 403.79 57.113 583.036C192.04 754.859 303.496 832.54 464.478 783.664C330.369 780.848 202.057 711.018 146.416 530.893" fill="#0FAAE6"/>
<path fill-rule="evenodd" clip-rule="evenodd" d="M668.131 202.187C612.844 154.071 557.197 123.614 502.985 107.327C242.785 121.702 56.7897 240.752 146.415 530.893C202.057 711.017 330.368 780.847 464.48 783.664C500.069 772.857 538.081 755.871 579.303 732.341C806.979 602.385 911.253 413.768 668.131 202.187" fill="#1E3E95"/>
<path fill-rule="evenodd" clip-rule="evenodd" d="M880.713 473.037C855.744 214.964 783.04 95.6049 516.051 106.694C511.675 106.875 507.319 107.088 502.982 107.326C557.197 123.613 612.843 154.073 668.133 202.186C911.252 413.767 806.978 602.387 579.305 732.34C538.08 755.872 500.071 772.857 464.479 783.663C673.176 788.047 895.914 630.149 880.713 473.037" fill="#FF7864"/>
<path fill-rule="evenodd" clip-rule="evenodd" d="M676.749 503.782H702.733V391.469H676.749V503.782ZM705.523 358.617C705.523 363.482 703.947 367.349 700.8 370.213C697.651 373.076 693.927 374.503 689.635 374.503C685.195 374.503 681.401 373.076 678.249 370.213C675.099 367.349 673.529 363.482 673.529 358.617C673.529 353.604 675.099 349.67 678.249 346.802C681.401 343.941 685.195 342.512 689.635 342.512C693.927 342.512 697.651 343.941 700.8 346.802C703.947 349.67 705.523 353.604 705.523 358.617V358.617Z" fill="white"/>
<path fill-rule="evenodd" clip-rule="evenodd" d="M559.414 395.122C564.422 393.691 570.933 392.33 578.952 391.04C586.968 389.752 595.842 389.107 605.581 389.107C614.743 389.107 622.403 390.366 628.557 392.867C634.711 395.374 639.62 398.883 643.268 403.388C646.921 407.898 649.498 413.342 651.003 419.709C652.506 426.083 653.259 433.061 653.259 440.644V503.783H627.27V444.727C627.27 438.717 626.874 433.599 626.092 429.371C625.298 425.152 624.01 421.715 622.224 419.066C620.436 416.415 618 414.488 614.921 413.266C611.843 412.052 608.083 411.446 603.648 411.446C600.355 411.446 596.917 411.658 593.343 412.088C589.761 412.518 587.11 412.878 585.398 413.163V503.783H559.414V395.122Z" fill="white"/>
<path fill-rule="evenodd" clip-rule="evenodd" d="M460.245 447.305C460.245 458.764 462.962 467.745 468.405 474.256C473.847 480.772 481.359 484.024 490.954 484.024C495.102 484.024 498.648 483.846 501.582 483.489C504.516 483.135 506.913 482.736 508.777 482.306V417.883C506.486 416.31 503.441 414.847 499.652 413.48C495.855 412.125 491.814 411.446 487.516 411.446C478.071 411.446 471.161 414.66 466.798 421.106C462.427 427.546 460.245 436.283 460.245 447.305V447.305ZM534.761 500.345C529.609 501.921 523.129 503.353 515.328 504.643C507.524 505.933 499.33 506.578 490.742 506.578C481.86 506.578 473.917 505.212 466.905 502.495C459.888 499.776 453.907 495.877 448.972 490.792C444.032 485.713 440.237 479.553 437.591 472.321C434.938 465.094 433.619 456.968 433.619 447.95C433.619 439.076 434.723 431.018 436.946 423.791C439.162 416.564 442.419 410.37 446.717 405.215C451.015 400.06 456.236 396.09 462.393 393.297C468.547 390.504 475.63 389.107 483.651 389.107C489.092 389.107 493.886 389.752 498.039 391.042C502.193 392.329 505.775 393.761 508.777 395.337V341.434L534.761 337.139V500.345Z" fill="white"/>
<path fill-rule="evenodd" clip-rule="evenodd" d="M414.462 500.346C409.448 501.637 402.94 502.961 394.923 504.322C386.902 505.675 378.094 506.362 368.51 506.362C359.486 506.362 351.937 505.072 345.851 502.494C339.762 499.916 334.9 496.342 331.247 491.759C327.6 487.175 324.988 481.702 323.412 475.33C321.836 468.961 321.05 461.98 321.05 454.389V391.471H347.031V450.311C347.031 462.337 348.788 470.925 352.296 476.08C355.8 481.233 361.922 483.811 370.652 483.811C373.804 483.811 377.129 483.672 380.643 483.38C384.146 483.1 386.76 482.735 388.478 482.305V391.471H414.462V500.346Z" fill="white"/>
<path fill-rule="evenodd" clip-rule="evenodd" d="M277.004 447.305C277.004 436.283 274.82 427.546 270.456 421.106C266.088 414.66 259.183 411.446 249.733 411.446C245.44 411.446 241.394 412.088 237.597 413.373C233.803 414.66 230.761 416.097 228.474 417.668V482.306C230.336 482.736 232.733 483.135 235.67 483.489C238.601 483.846 242.147 484.024 246.3 484.024C255.89 484.024 263.402 480.772 268.846 474.256C274.282 467.745 277.004 458.764 277.004 447.305M303.63 447.735C303.63 456.753 302.306 464.879 299.663 472.106C297.014 479.341 293.217 485.529 288.282 490.684C283.342 495.835 277.361 499.776 270.349 502.495C263.332 505.212 255.389 506.578 246.513 506.578C237.919 506.578 229.725 505.933 221.926 504.643C214.12 503.353 207.646 501.921 202.488 500.345V341.434L228.474 337.139V395.337C231.482 393.761 235.163 392.329 239.532 391.042C243.901 389.752 248.728 389.107 254.028 389.107C261.9 389.107 268.954 390.504 275.182 393.297C281.409 396.09 286.594 400.06 290.747 405.215C294.901 410.37 298.082 416.564 300.308 423.791C302.524 431.018 303.63 439.005 303.63 447.735" fill="white"/>
</svg>
