<svg width="212" height="54" viewBox="0 0 212 54" fill="none" xmlns="http://www.w3.org/2000/svg">
<path d="M87.3281 25.506V32.4005H84.2377V26.2965C84.2377 24.3424 83.2076 23.7276 82.0022 23.7276C80.9063 23.7276 79.942 24.2983 79.5913 25.4182V32.4005H76.501V16.8109H79.5913V22.2783C80.2708 21.4657 81.3882 20.7853 83.032 20.7853C85.5748 20.785 87.3281 22.4759 87.3281 25.506Z" fill="#858585"/>
<path d="M101.172 29.546V32.1589C100.69 32.4002 100.12 32.5543 99.353 32.5543C97.8627 32.5543 97.2054 31.8733 96.9861 30.9072C96.0876 32.0052 94.9258 32.6856 93.1947 32.6856C90.9592 32.6856 89.6006 31.2804 89.6006 29.3482C89.6006 26.7131 91.9238 25.7473 94.1372 25.7473C95.1673 25.7473 96.0003 25.8573 96.6576 26.0546V25.9445C96.6576 24.1439 95.6711 23.4198 93.8742 23.4198C92.6688 23.4198 91.4852 23.6611 90.762 24.1224L90.6744 24.0783V21.5973C91.2659 21.2241 92.6906 20.7847 94.422 20.7847C98.2573 20.7847 99.7476 22.8047 99.7476 25.857V28.9091C99.7476 29.5017 100.032 29.7217 100.449 29.7217C100.778 29.7217 100.953 29.6339 101.106 29.502L101.172 29.546ZM96.6573 28.9753V27.9214C96.1313 27.7236 95.5177 27.6361 94.7942 27.6361C93.5669 27.6361 92.6466 28.0749 92.6466 29.0628C92.6466 29.9414 93.3039 30.3587 94.1587 30.3587C95.2987 30.3584 96.2189 29.7217 96.6573 28.9753Z" fill="#858585"/>
<path d="M114.184 25.5498V32.4006H111.093V26.4062C111.093 24.4303 110.063 23.7714 108.792 23.7714C107.696 23.7714 106.754 24.4081 106.425 25.4839V32.4003H103.335V21.0704H105.855L106.14 22.6075C106.819 21.5977 108.047 20.785 109.866 20.785C112.365 20.785 114.184 22.4759 114.184 25.5498Z" fill="#858585"/>
<path d="M116.675 31.8733V29.2826L116.763 29.2385C117.771 29.9193 119.349 30.3803 120.664 30.3803C122.045 30.3803 122.724 30.073 122.724 29.3264C122.724 28.6019 122.22 28.3384 120.182 27.7674C117.815 27.0866 116.741 26.0987 116.741 24.3203C116.741 22.1906 118.714 20.785 121.651 20.785C123.163 20.785 124.346 20.9829 125.135 21.3123V23.859L125.069 23.903C124.237 23.4858 122.921 23.2664 121.782 23.2664C120.599 23.2664 119.744 23.5958 119.744 24.2106C119.744 24.8472 120.248 25.067 122.177 25.5939C124.588 26.2525 125.683 27.241 125.683 29.0851C125.683 31.4126 123.82 32.7081 120.818 32.7081C118.998 32.7078 117.662 32.3347 116.675 31.8733Z" fill="#858585"/>
<path d="M149.229 21.1585L145.416 32.4006H143.246L140.77 25.1769L140.66 24.7378L140.528 25.1769L137.964 32.4006H135.75L131.915 21.1585L131.959 21.0707H135.028L136.978 27.8555L137.044 28.4043L137.175 27.8774L139.432 21.0707H141.975L144.166 27.8336L144.298 28.4262L144.385 27.8114L146.358 21.0707H149.207L149.229 21.1585Z" fill="#858585"/>
<path d="M161.321 26.2087C161.321 26.7134 161.321 27.0869 161.299 27.5261H153.475C153.782 29.2826 155.097 30.1609 157.047 30.1609C158.187 30.1609 159.283 29.9415 160.532 29.3707L160.619 29.3926V31.8299C159.304 32.5106 157.836 32.7081 156.455 32.7081C153.453 32.7081 150.275 31.0835 150.275 26.7359C150.275 23.1351 152.729 20.7856 156.017 20.7856C159.239 20.785 161.277 22.7175 161.321 26.2087ZM158.34 25.6377C158.187 24.079 157.354 23.2882 155.995 23.2882C154.724 23.2882 153.781 24.0787 153.496 25.6377H158.34Z" fill="#858585"/>
<path d="M163.506 17.6233C163.506 16.5912 164.36 15.7349 165.39 15.7349C166.421 15.7349 167.275 16.5912 167.275 17.6233C167.275 18.6772 166.421 19.5117 165.39 19.5117C164.36 19.5117 163.506 18.6772 163.506 17.6233ZM163.856 21.0707H166.947V32.4006H163.856V21.0707Z" fill="#858585"/>
<path d="M169.591 31.8733V29.2826L169.679 29.2385C170.687 29.9193 172.265 30.3803 173.58 30.3803C174.961 30.3803 175.64 30.073 175.64 29.3264C175.64 28.6019 175.136 28.3384 173.098 27.7674C170.731 27.0866 169.657 26.0987 169.657 24.3203C169.657 22.1906 171.63 20.785 174.567 20.785C176.079 20.785 177.262 20.9829 178.051 21.3123V23.859L177.985 23.903C177.153 23.4858 175.838 23.2664 174.698 23.2664C173.515 23.2664 172.66 23.5958 172.66 24.2106C172.66 24.8472 173.164 25.067 175.093 25.5939C177.504 26.2525 178.599 27.241 178.599 29.0851C178.599 31.4126 176.736 32.7081 173.734 32.7081C171.915 32.7078 170.577 32.3347 169.591 31.8733Z" fill="#858585"/>
<path d="M180.521 31.8733V29.2826L180.609 29.2385C181.617 29.9193 183.195 30.3803 184.51 30.3803C185.891 30.3803 186.57 30.073 186.57 29.3264C186.57 28.6019 186.066 28.3384 184.028 27.7674C181.661 27.0866 180.587 26.0987 180.587 24.3203C180.587 22.1906 182.559 20.785 185.496 20.785C187.009 20.785 188.192 20.9829 188.981 21.3123V23.859L188.915 23.903C188.082 23.4858 186.767 23.2664 185.628 23.2664C184.444 23.2664 183.59 23.5958 183.59 24.2106C183.59 24.8472 184.094 25.067 186.023 25.5939C188.433 26.2525 189.529 27.241 189.529 29.0851C189.529 31.4126 187.666 32.7081 184.663 32.7081C182.844 32.7078 181.507 32.3347 180.521 31.8733Z" fill="#858585"/>
<path d="M202.409 26.2087C202.409 26.7134 202.409 27.0869 202.387 27.5261H194.563C194.87 29.2826 196.185 30.1609 198.135 30.1609C199.275 30.1609 200.37 29.9415 201.62 29.3707L201.707 29.3926V31.8299C200.392 32.5106 198.924 32.7081 197.543 32.7081C194.54 32.7081 191.363 31.0835 191.363 26.7359C191.363 23.1351 193.817 20.7856 197.105 20.7856C200.327 20.785 202.365 22.7175 202.409 26.2087ZM199.428 25.6377C199.275 24.079 198.442 23.2882 197.083 23.2882C195.812 23.2882 194.869 24.0787 194.584 25.6377H199.428Z" fill="#858585"/>
<path d="M212.001 20.9829V23.7933L211.936 23.8149C211.694 23.7273 211.344 23.6392 210.774 23.6392C209.525 23.6392 208.209 24.2977 208.034 26.5375V32.3999H204.944V21.0701H207.464L207.75 22.6512C208.385 21.3995 209.59 20.8069 210.774 20.8069C211.234 20.8072 211.585 20.851 212.001 20.9829Z" fill="#858585"/>
<path d="M75.6953 50.6572V48.655L75.763 48.6212C76.542 49.1472 77.7615 49.5032 78.7779 49.5032C79.8448 49.5032 80.3701 49.2657 80.3701 48.689C80.3701 48.1289 79.9805 47.9255 78.4054 47.4845C76.5763 46.9581 75.7465 46.1949 75.7465 44.8203C75.7465 43.1744 77.2707 42.0886 79.5403 42.0886C80.7089 42.0886 81.6236 42.2411 82.2332 42.4959V44.4643L82.1823 44.4981C81.5388 44.1758 80.5227 44.0061 79.6417 44.0061C78.727 44.0061 78.0666 44.2605 78.0666 44.7359C78.0666 45.2279 78.4562 45.3976 79.9465 45.8048C81.8095 46.314 82.6565 47.0772 82.6565 48.5028C82.6565 50.3015 81.2168 51.3026 78.8967 51.3026C77.4907 51.3016 76.4574 51.0131 75.6953 50.6572Z" fill="#858585"/>
<path d="M88.5153 44.209V47.5517C88.5153 48.4681 88.8541 49.0447 89.8193 49.0447C90.3107 49.0447 90.7169 48.9091 91.022 48.7562L91.0897 48.7734V50.7928C90.4969 51.0982 89.7856 51.166 89.1081 51.166C87.245 51.166 86.1104 50.0968 86.1104 48.0605V44.2086H84.6201V42.3083H86.1104V40.1871L88.4645 39.7289L88.5153 39.763V42.3083H91.0897V44.2086H88.5153V44.209Z" fill="#858585"/>
<path d="M93.5278 39.6442C93.5278 38.8469 94.1883 38.1849 94.9844 38.1849C95.7805 38.1849 96.441 38.8469 96.441 39.6442C96.441 40.4587 95.7805 41.1035 94.9844 41.1035C94.1883 41.1035 93.5278 40.459 93.5278 39.6442ZM93.7989 42.3087H96.187V51.0644H93.7989V42.3087Z" fill="#858585"/>
<path d="M104.926 39.0675V41.1547L104.875 41.1719C104.604 41.07 104.35 41.036 103.994 41.036C103.215 41.036 102.69 41.3926 102.622 42.3087H104.418V44.1752H102.606V51.0644H100.2V44.1752H98.998V42.3087H100.2C100.319 40.0686 101.759 38.8978 103.605 38.8978C104.13 38.8978 104.519 38.9316 104.926 39.0675Z" fill="#858585"/>
<path d="M109.82 44.209V47.5517C109.82 48.4681 110.159 49.0447 111.124 49.0447C111.616 49.0447 112.022 48.9091 112.327 48.7562L112.394 48.7734V50.7928C111.802 51.0982 111.09 51.166 110.413 51.166C108.549 51.166 107.415 50.0968 107.415 48.0605V44.2086H105.924V42.3083H107.415V40.1871L109.769 39.7289L109.82 39.763V42.3083H112.394V44.2086H109.82V44.209Z" fill="#858585"/>
<path d="M123.183 42.3087V51.0645H121.252L121.015 49.8765C120.524 50.691 119.575 51.2851 118.102 51.2851C116.12 51.2851 115.002 50.0462 115.002 47.9762V42.3087H117.407V47.4333C117.407 48.74 118.067 49.232 119.016 49.232C119.778 49.232 120.523 48.8754 120.794 48.0102V42.309L123.183 42.3087Z" fill="#858585"/>
<path d="M135.054 45.7702V51.0642H132.666V46.4319C132.666 44.9045 131.87 44.3956 130.887 44.3956C130.041 44.3956 129.312 44.8876 129.058 45.719V51.0642H126.67V42.3084H128.618L128.838 43.4961C129.363 42.7157 130.312 42.0878 131.717 42.0878C133.648 42.0881 135.054 43.3945 135.054 45.7702Z" fill="#858585"/>
<path d="M146.688 43.9542H145.13C145.503 44.2768 145.74 44.7178 145.74 45.3798C145.74 46.9238 144.351 47.9761 141.963 47.9761C141.489 47.9761 141.049 47.9252 140.659 47.8402C140.591 47.9249 140.541 48.0271 140.541 48.1458C140.541 48.6212 140.93 48.7056 142.979 48.8584C145.418 49.0619 146.587 49.6389 146.587 51.251C146.587 53.1513 144.978 53.9999 141.997 53.9999C139.558 53.9999 137.779 53.406 137.779 51.9127C137.779 51.115 138.287 50.5384 138.982 50.063C138.575 49.8086 138.338 49.4182 138.338 48.8412C138.338 48.1624 138.745 47.6704 139.304 47.3141C138.575 46.8222 138.152 46.0924 138.152 45.1588C138.152 43.3941 139.642 42.3083 141.997 42.3083H146.688V43.9542H146.688ZM142.352 50.7247C141.726 50.6737 141.15 50.6231 140.642 50.555C140.235 50.8266 139.947 51.1319 139.947 51.5223C139.947 52.2011 140.828 52.4215 142.285 52.4215C143.792 52.4215 144.453 52.1502 144.453 51.5901C144.453 50.9284 143.775 50.8434 142.352 50.7247ZM143.47 45.1591C143.47 44.3787 142.878 43.9714 141.963 43.9714C141.065 43.9714 140.473 44.3787 140.473 45.1591C140.473 45.9227 141.065 46.313 141.963 46.313C142.878 46.313 143.47 45.9227 143.47 45.1591Z" fill="#858585"/>
<path d="M63.2056 10.0571L59.0839 10.3721C61.876 18.8963 64.4135 32.5681 61.2449 41.1548C58.5897 48.3509 50.5919 48.3893 48.5335 40.9122C47.9439 38.77 47.6684 36.4906 47.5333 34.2005C47.3284 31.0997 47.3515 27.9649 47.3515 27.9649L43.2831 28.2874C43.2831 28.2874 43.4553 31.0147 43.3948 32.8028C43.3514 34.7938 43.4116 37.1176 43.1281 39.0813C42.813 41.2654 42.17 43.7314 40.4227 45.2966C37.9198 47.5386 34.1425 47.1979 32.14 44.6953C29.2259 41.0535 29.0272 35.1713 28.7159 30.7212C28.6167 29.2976 28.738 27.6083 28.7212 26.1724C28.8665 26.1127 29.0203 26.0577 29.1629 25.9964C35.5935 23.2254 44.4009 16.6465 45.3203 9.04192C45.8175 4.92815 43.3945 0.984097 39.2063 0.150217C33.3408 -1.01809 29.6711 4.86908 27.6053 9.46667C25.6679 13.7789 24.8241 18.4362 24.6247 23.1588L20.7507 24.3334C20.5969 18.2534 20.0535 11.3613 19.6036 5.29852C19.6036 5.29852 14.3333 5.3229 0 6.37494L0.280458 10.4421C4.42212 10.0083 15.8167 9.43698 15.8167 9.43698C16.2391 15.381 16.5573 19.7989 16.6749 25.7561C8.13764 29.1654 -2.77806 36.2062 1.00796 45.7783C3.79788 52.8322 12.5672 52.0974 16.6637 46.8006C20.5436 41.7836 20.8824 34.9497 20.8378 28.7691L24.6204 27.6189C24.7308 30.8685 25.0724 34.1074 25.5117 37.2448C26.5932 44.9738 31.1333 54.0655 40.5138 50.0305C42.9109 48.9994 44.5091 47.1813 45.5686 44.96C45.7782 45.4048 46 45.8417 46.2505 46.2605C49.1924 51.1848 54.9229 52.2149 59.8123 49.3813C65.1136 46.3096 66.1611 39.7661 66.6422 34.174C67.3005 26.519 65.6102 17.4082 63.2056 10.0571ZM29.9188 15.2126C30.7227 12.3268 33.0375 7.0713 35.8321 4.99066C37.5096 3.74172 40.005 3.73765 41.1608 5.87486C42.7506 8.81563 39.2145 13.2173 37.2466 15.2704C34.7483 17.8767 31.9444 19.853 28.8837 21.3779C29.0587 19.297 29.3579 17.2266 29.9188 15.2126ZM10.3548 46.6872C5.93547 48.1508 3.68182 43.6901 5.01704 40.0027C6.96184 34.6312 11.6173 31.9864 16.7479 30.1174C16.7754 36.1724 16.2341 44.7409 10.3548 46.6872Z" fill="#858585"/>
</svg>
