<svg xmlns="http://www.w3.org/2000/svg" viewBox="0 0 1597.1 843.16"><path d="M939.97 404.22l195.28-195.67H994.72L845.1 361.97h-9.27V0h-120.1v447.07c-29.7 33.91-77.73 71.15-79.85 71.65-3.77.89-7.75-1.96-7.06-6.05 2.93-17.4 21.18-74.55 23.94-91.07 12.11-72.29-5.57-136.27-53.03-169.43-46.28-32.33-131.18-47.93-212.49 6.82-22.72-23.99-62.02-57.7-131.56-57.7s-116.09 35.1-137.84 73.76l-9.41-66.57-108.2.06v416.98h119.08c0-53.68-.33-143.85-.33-143.85-.14-39.9-1.89-81.96 18.2-114.06 54.06-86.37 140.81-51.56 153.3-32.42-57.79 58.78-88.82 117.15-96.44 173.54-5.09 37.63 0 75.62 20.84 104.19 20.14 27.6 46.69 46.72 79.66 51.26 5.38.74 10.76 1.11 16.12 1.11 31.66 0 62.55-12.73 86.67-36.15 28.55-27.72 46.71-67.98 53.95-119.65 7.9-56.33 2.55-114.79-13.12-160.84 35.54-26.01 135-40.07 111.78 70.81-3.23 15.43-20.05 94.68-23.61 119.39-13.42 93.29 70.69 105.67 107.61 92.26 30.53-11.09 64.22-37.29 81.79-52.11v46.53h120.1V449.55h10.66l151.97 176.02 141.37-.04-199.87-221.3zm-585.83 90.82c-7.38 52.67-28.14 74.13-44.33 72.03-16.72-2.17-27.06-20.67-25.11-44.89 4.4-54.86 52.96-105.02 65.17-114.01 7.07 22.49 8.45 57.07 4.27 86.88zm1236.18 130.48l-199.87-221.34 195.28-195.67H1445.2l-149.66 153.46h-9.23V0h-120.09v625.52h120.09V449.54h10.7l151.94 175.98h141.37zM0 841.61v-76.42h19.38v10.18s-2.22 4.03-.46.83c1.76-3.2 3.85-5.71 6.28-7.52 2.43-1.81 4.96-3.1 7.59-3.88 2.64-.77 5.24-1.16 7.83-1.16 4.03 0 7.85.75 11.47 2.25 3.62 1.5 6.77 4.06 9.46 7.67.37.49.72 1.01 1.06 1.56 2.12 3.44-3.15 4.54-.2.3 2.95-4.24 6.35-7.26 10.23-9.07 3.88-1.81 7.98-2.71 12.32-2.71 6.51 0 11.78 1.45 15.81 4.34 4.03 2.89 7 6.59 8.91 11.08 1.91 4.5 2.87 9.28 2.87 14.34v48.21H93.33v-43.55c0-3.82-.49-7.05-1.47-9.69-.98-2.64-2.4-4.62-4.26-5.97-1.86-1.34-4.29-2.01-7.28-2.01s-5.74.83-7.91 2.48-3.8 4.13-4.88 7.44c-1.08 3.31-1.63 7.54-1.63 12.71v38.59H46.68v-43.87c0-5.79-1.06-10.13-3.18-13.02-2.12-2.89-5.19-4.34-9.22-4.34-3.2 0-5.92.83-8.14 2.48-2.22 1.65-3.9 4.13-5.04 7.44-1.14 3.31-1.71 7.54-1.71 12.71v38.59H0zm174.84 1.55c-6.61 0-12.3-1.08-17.05-3.25s-8.66-5.09-11.7-8.76c-3.05-3.67-5.3-7.85-6.74-12.55-1.45-4.7-2.17-9.63-2.17-14.8s.72-9.82 2.17-14.57 3.62-9.04 6.51-12.87c2.89-3.82 6.64-6.9 11.24-9.22 4.6-2.33 10.1-3.49 16.51-3.49 5.99 0 11.21 1.01 15.66 3.02 4.44 2.01 8.11 4.8 11 8.37 2.89 3.56 5.09 7.73 6.59 12.48s2.25 9.82 2.25 15.19c0 .72-.03 1.73-.08 3.02s-.18 2.66-.39 4.11H156.4c.52 5.48 2.56 9.61 6.12 12.4s8.03 4.18 13.41 4.18c3.93 0 7.75-.7 11.47-2.09 3.72-1.4 7.03-3.38 9.92-5.97l9.61 13.02c-3.62 2.79-7.03 5.06-10.23 6.82-3.2 1.76-6.54 3.02-10 3.8-3.46.77-7.42 1.16-11.86 1.16zm15.38-46.62c.14-.76.58-.28.59-.95v-.17c0-2.17-.41-4.21-1.24-6.12-.83-1.91-1.96-3.59-3.41-5.04-1.45-1.45-3.18-2.56-5.19-3.33-2.02-.77-4.32-1.16-6.9-1.16-3.82 0-7.03.77-9.61 2.33-2.58 1.55-4.52 3.54-5.81 5.97-1.29 2.43-2.09 4.94-2.4 7.52l34.98-.03s-1.16 1.83-1 1zm43.67-43.12v-19.84h20.61v19.84h-20.61zm.62 88.2V765.2h19.22v76.42h-19.22zm48.2-.01v-76.42h19.38l.12 10.35-3.22 7.32c2.38-8.43 7.24-14.29 14.88-17.28 10.1-3.97 24.21-1.75 30.92 5.42 4.91 4.91 7.36 11.81 7.36 20.69v49.91h-19.38v-42.78c0-6.41-1.14-11.08-3.41-14.03-3.6-5.37-14.85-5.67-19.92-1.86-2.43 1.7-4.26 4.37-5.5 7.98-1.24 3.62-1.86 8.32-1.86 14.1v36.58H282.7zm131.6 1.55c-6.61 0-12.3-1.08-17.05-3.25s-8.66-5.09-11.7-8.76c-3.05-3.67-5.3-7.85-6.74-12.55-1.45-4.7-2.17-9.63-2.17-14.8s.72-9.82 2.17-14.57 3.62-9.04 6.51-12.87c2.89-3.82 6.64-6.9 11.24-9.22 4.6-2.33 10.1-3.49 16.51-3.49 5.99 0 11.21 1.01 15.66 3.02 4.44 2.01 8.11 4.8 11 8.37 2.89 3.56 5.09 7.73 6.59 12.48s2.25 9.82 2.25 15.19c0 .72-.03 1.73-.08 3.02s-.18 2.66-.39 4.11h-52.24c.52 5.48 2.56 9.61 6.12 12.4s8.03 4.18 13.41 4.18c3.93 0 7.75-.7 11.47-2.09 3.72-1.4 7.03-3.38 9.92-5.97l9.61 13.02c-3.62 2.79-7.03 5.06-10.23 6.82-3.2 1.76-6.54 3.02-10 3.8-3.46.77-7.42 1.16-11.86 1.16zm15.19-42.93c.21-.83.39-1.65.54-2.48.15-.83.23-1.6.23-2.33 0-2.17-.41-4.21-1.24-6.12-.83-1.91-1.96-3.59-3.41-5.04-1.45-1.45-3.18-2.56-5.19-3.33-2.02-.77-4.32-1.16-6.9-1.16-3.82 0-7.03.77-9.61 2.33-2.58 1.55-4.52 3.54-5.81 5.97-1.29 2.43-2.09 4.94-2.4 7.52h35.5l-1.71 4.65zm138.72-6.51l27.75-28.52h-24.49l-27.59 29.05v-60.67h-19.38v108.03h19.38v-23.45l10.23-11.42 22.16 34.87h22.94l-31-47.89zm53.17 47.89v-76.42h19.38v11.35l-2.95 9.73c.31-4.44 1.65-8.37 4.03-11.78 2.38-3.41 5.29-6.07 8.76-7.98 3.46-1.91 7-2.87 10.62-2.87 2.58 0 5.04.34 7.36 1.01 2.33.67 4.73 1.78 7.21 3.33l-9.3 17.36c-1.14-.62-2.58-1.19-4.34-1.71-1.76-.52-3.51-.78-5.27-.78-2.07 0-4.06.36-5.97 1.08-1.91.72-3.62 1.86-5.11 3.41-1.5 1.55-2.71 3.62-3.64 6.2-.41 1.45-.75 3.28-1.01 5.5s-.39 5.45-.39 9.69v32.86h-19.38zm132.37-70.06c-5.89-5.27-14.1-7.91-24.65-7.91-6.51 0-12.58.96-18.21 2.87-5.63 1.91-11.14 5.04-16.51 9.38l9.77 13.17c3.2-2.89 6.9-5.14 11.08-6.74 4.19-1.6 8.29-2.4 12.32-2.4 4.86 0 8.7 1.11 11.55 3.33 2.84 2.22 4.26 5.61 4.26 10.15v1.86h-22.01c-3.62 0-7 .31-10.15.93-3.15.62-6.02 1.71-8.6 3.25-3 1.65-5.4 4.06-7.21 7.21-1.81 3.15-2.71 6.95-2.71 11.39 0 4.96 1.26 9.35 3.8 13.17 2.53 3.82 5.99 6.77 10.38 8.83 4.39 2.07 9.38 3.1 14.96 3.1 3.93 0 7.65-.77 11.16-2.33 3.51-1.55 6.64-4 9.38-7.36.43-.53.84-1.09 1.23-1.67l1.33 9.8h17.67v-48.21c0-9.3-2.94-16.58-8.83-21.85zm-12.94 47.66c-1.71 2.63-3.98 4.7-6.82 6.2-2.84 1.5-5.97 2.25-9.38 2.25-3.82 0-6.87-.88-9.15-2.63-2.27-1.76-3.41-4.08-3.41-6.97 0-1.34.26-2.56.77-3.64a6.94 6.94 0 012.32-2.71c1.14-.93 2.5-1.52 4.11-1.78 1.6-.26 3.23-.39 4.88-.39h19.22v.62c0 3.41-.85 6.43-2.56 9.07zm49.82 22.4v-76.42h19.38v10.35l-3.1 7.32c1.34-4.65 3.31-8.37 5.89-11.16 2.58-2.79 5.58-4.83 8.99-6.12s6.92-1.94 10.54-1.94c8.68 0 15.47 2.46 20.38 7.36 4.91 4.91 7.36 11.81 7.36 20.69v49.91h-19.37v-42.78c0-6.41-1.14-11.08-3.41-14.03-2.27-2.95-5.84-4.42-10.69-4.42-3.72 0-6.8.85-9.22 2.56-2.43 1.71-4.26 4.37-5.5 7.98-1.24 3.62-1.86 8.32-1.86 14.1v36.58h-19.38zm141.21-47.89l27.74-28.52H935.1l-27.59 29.05v-60.67h-19.37v108.03h19.37v-23.45l10.23-11.42 22.17 34.87h22.94l-31-47.89zm82.61 49.44c-6.61 0-12.3-1.08-17.05-3.25s-8.66-5.09-11.7-8.76c-3.05-3.67-5.3-7.85-6.74-12.55-1.45-4.7-2.17-9.63-2.17-14.8s.72-9.82 2.17-14.57 3.62-9.04 6.51-12.87c2.89-3.82 6.64-6.9 11.24-9.22 4.6-2.33 10.1-3.49 16.51-3.49 5.99 0 11.21 1.01 15.65 3.02 4.44 2.01 8.11 4.8 11 8.37 2.89 3.56 5.09 7.73 6.59 12.48s2.25 9.82 2.25 15.19c0 .72-.03 1.73-.08 3.02s-.18 2.66-.39 4.11h-52.23c.52 5.48 2.56 9.61 6.12 12.4 3.57 2.79 8.03 4.18 13.41 4.18 3.93 0 7.75-.7 11.47-2.09 3.72-1.4 7.03-3.38 9.92-5.97l9.61 13.02c-3.62 2.79-7.03 5.06-10.23 6.82-3.2 1.76-6.54 3.02-10 3.8-3.46.77-7.42 1.16-11.86 1.16zm15.19-42.93c.21-.83.39-1.65.54-2.48.16-.83.23-1.6.23-2.33 0-2.17-.41-4.21-1.24-6.12-.83-1.91-1.96-3.59-3.41-5.04-1.45-1.45-3.18-2.56-5.19-3.33-2.02-.77-4.32-1.16-6.9-1.16-3.82 0-7.03.77-9.61 2.33-2.58 1.55-4.52 3.54-5.81 5.97-1.29 2.43-2.09 4.94-2.4 7.52h35.35l-1.56 4.65zm44.64 41.38v-76.42h19.38v10.35l-3.1 7.32c1.34-4.65 3.31-8.37 5.89-11.16 2.58-2.79 5.58-4.83 8.99-6.12s6.92-1.94 10.54-1.94c8.68 0 15.47 2.46 20.38 7.36 4.91 4.91 7.36 11.81 7.36 20.69v49.91h-19.38v-42.78c0-6.41-1.14-11.08-3.41-14.03-2.27-2.95-5.84-4.42-10.7-4.42-3.72 0-6.8.85-9.22 2.56-2.43 1.71-4.26 4.37-5.5 7.98-1.24 3.62-1.86 8.32-1.86 14.1v36.58h-19.38zm141.2-47.89l27.75-28.52h-24.49l-27.59 29.05v-60.67h-19.38v108.03h19.38v-23.45l10.23-11.42 22.16 34.87h22.94l-31-47.89zm109.9-22.17c-5.89-5.27-14.1-7.91-24.64-7.91-6.51 0-12.58.96-18.21 2.87-5.63 1.91-11.14 5.04-16.51 9.38l9.76 13.17c3.2-2.89 6.9-5.14 11.08-6.74 4.18-1.6 8.29-2.4 12.32-2.4 4.86 0 8.7 1.11 11.55 3.33 2.84 2.22 4.26 5.61 4.26 10.15v1.86h-22.01c-3.62 0-7 .31-10.15.93-3.15.62-6.02 1.71-8.6 3.25-3 1.65-5.4 4.06-7.21 7.21-1.81 3.15-2.71 6.95-2.71 11.39 0 4.96 1.26 9.35 3.8 13.17 2.53 3.82 5.99 6.77 10.39 8.83 4.39 2.07 9.38 3.1 14.96 3.1 3.93 0 7.65-.77 11.16-2.33 3.51-1.55 6.64-4 9.38-7.36.43-.53.84-1.09 1.23-1.67l1.32 9.8h17.67v-48.21c0-9.3-2.95-16.58-8.84-21.85zm-12.94 47.66c-1.71 2.63-3.98 4.7-6.82 6.2-2.84 1.5-5.97 2.25-9.38 2.25-3.82 0-6.87-.88-9.14-2.63-2.27-1.76-3.41-4.08-3.41-6.97 0-1.34.26-2.56.77-3.64a6.886 6.886 0 012.33-2.71c1.14-.93 2.5-1.52 4.11-1.78 1.6-.26 3.23-.39 4.88-.39h19.22v.62c0 3.41-.85 6.43-2.56 9.07zm76.34 23.95c-5.68 0-10.64-.83-14.88-2.48s-7.83-3.72-10.77-6.2c-2.95-2.48-5.3-4.86-7.05-7.13l13.17-11.47c1.76 2.89 4.26 5.56 7.52 7.98 3.25 2.43 7.31 3.64 12.17 3.64 3.82 0 6.79-.75 8.91-2.25s3.18-3.38 3.18-5.66c0-1.86-.67-3.38-2.01-4.57-1.34-1.19-3.15-2.17-5.43-2.95-2.27-.78-4.8-1.52-7.59-2.25-2.89-.83-5.89-1.76-8.99-2.79-3.1-1.03-5.94-2.4-8.52-4.11-2.58-1.71-4.68-3.9-6.28-6.59-1.6-2.69-2.4-6.04-2.4-10.08 0-6.72 2.64-12.17 7.91-16.35 5.27-4.18 12.25-6.28 20.92-6.28 6.1 0 11.62 1.22 16.58 3.64 4.96 2.43 8.89 5.92 11.78 10.46l-11.93 9.46c-1.86-3-4.32-5.24-7.36-6.74-3.05-1.5-6.28-2.25-9.69-2.25-3 0-5.45.57-7.36 1.7-1.91 1.14-2.87 2.69-2.87 4.65 0 1.34.44 2.48 1.32 3.41.88.93 2.33 1.73 4.34 2.4 2.02.67 4.67 1.42 7.98 2.25 3.1.72 6.3 1.6 9.61 2.64 3.31 1.03 6.41 2.43 9.3 4.18 2.89 1.76 5.22 4.08 6.98 6.98 1.76 2.89 2.63 6.56 2.63 11 0 5.06-1.29 9.53-3.88 13.41-2.58 3.88-6.2 6.9-10.85 9.07-4.65 2.17-10.13 3.25-16.43 3.25zm83.23 0c-5.68 0-10.64-.83-14.88-2.48s-7.83-3.72-10.77-6.2c-2.95-2.48-5.3-4.86-7.05-7.13l13.17-11.47c1.76 2.89 4.26 5.56 7.52 7.98 3.25 2.43 7.31 3.64 12.17 3.64 3.82 0 6.79-.75 8.91-2.25s3.18-3.38 3.18-5.66c0-1.86-.67-3.38-2.01-4.57-1.34-1.19-3.15-2.17-5.43-2.95-2.27-.78-4.8-1.52-7.59-2.25-2.89-.83-5.89-1.76-8.99-2.79-3.1-1.03-5.94-2.4-8.52-4.11-2.58-1.71-4.68-3.9-6.28-6.59-1.6-2.69-2.4-6.04-2.4-10.08 0-6.72 2.64-12.17 7.91-16.35 5.27-4.18 12.25-6.28 20.92-6.28 6.1 0 11.62 1.22 16.58 3.64 4.96 2.43 8.89 5.92 11.78 10.46l-11.93 9.46c-1.86-3-4.32-5.24-7.36-6.74-3.05-1.5-6.28-2.25-9.69-2.25-3 0-5.45.57-7.36 1.7-1.91 1.14-2.87 2.69-2.87 4.65 0 1.34.44 2.48 1.32 3.41.88.93 2.33 1.73 4.34 2.4 2.02.67 4.67 1.42 7.98 2.25 3.1.72 6.3 1.6 9.61 2.64 3.31 1.03 6.41 2.43 9.3 4.18 2.89 1.76 5.22 4.08 6.98 6.98 1.76 2.89 2.63 6.56 2.63 11 0 5.06-1.29 9.53-3.88 13.41-2.58 3.88-6.2 6.9-10.85 9.07-4.65 2.17-10.13 3.25-16.43 3.25zm90.82 0c-6.61 0-12.3-1.08-17.05-3.25s-8.66-5.09-11.7-8.76c-3.05-3.67-5.3-7.85-6.74-12.55-1.45-4.7-2.17-9.63-2.17-14.8s.72-9.82 2.17-14.57 3.62-9.04 6.51-12.87c2.89-3.82 6.64-6.9 11.24-9.22 4.6-2.33 10.1-3.49 16.51-3.49 5.99 0 11.21 1.01 15.65 3.02 4.44 2.01 8.11 4.8 11 8.37 2.89 3.56 5.09 7.73 6.59 12.48s2.25 9.82 2.25 15.19c0 .72-.03 1.73-.08 3.02s-.18 2.66-.39 4.11h-52.23c.52 5.48 2.56 9.61 6.12 12.4 3.57 2.79 8.03 4.18 13.41 4.18 3.93 0 7.75-.7 11.47-2.09 3.72-1.4 7.03-3.38 9.92-5.97l9.61 13.02c-3.62 2.79-7.03 5.06-10.23 6.82-3.2 1.76-6.54 3.02-10 3.8-3.46.77-7.42 1.16-11.86 1.16zm15.19-42.93c.21-.83.39-1.65.54-2.48.16-.83.23-1.6.23-2.33 0-2.17-.41-4.21-1.24-6.12-.83-1.91-1.96-3.59-3.41-5.04-1.45-1.45-3.18-2.56-5.19-3.33-2.02-.77-4.32-1.16-6.9-1.16-3.82 0-7.03.77-9.61 2.33-2.58 1.55-4.52 3.54-5.81 5.97-1.29 2.43-2.09 4.94-2.4 7.52h34.97l-1.18 4.65z" fill="#004d4d"/></svg>