<?xml version="1.0" encoding="UTF-8"?>
<!-- Generator: Adobe Illustrator 25.2.1, SVG Export Plug-In . SVG Version: 6.00 Build 0)  -->
<svg xmlns="http://www.w3.org/2000/svg" xmlns:xlink="http://www.w3.org/1999/xlink" version="1.1" id="Ebene_1" x="0px" y="0px" viewBox="0 0 157.9 155.1" style="enable-background:new 0 0 157.9 155.1;" xml:space="preserve">
<style type="text/css">
	.st0{fill:none;}
	.st1{fill:#EC6726;}
	.st2{fill:#878787;}
	.st3{fill:none;stroke:#EC6726;stroke-width:4;}
</style>
<g>
	<path class="st0" d="M57.7,74.1c0-6.2-2.7-8.7-8.1-8.7h-3.7v16.9h2.8C55.6,82.2,57.7,78.8,57.7,74.1z"></path>
	<path class="st1" d="M45.9,84.2h2.6l2.8,4l8-3.5l-0.8-1.1c4.8-0.9,8.8-4.5,8.8-9.6c0-7.5-5.7-10.9-14.5-10.9H31.5v1.1   c5.5,0,5.5,1.5,5.5,6.3v24l9-3.9V84.2z M45.9,65.4h3.7c5.4,0,8.1,2.6,8.1,8.7c0,4.8-2.1,8.2-9,8.2h-2.8V65.4z"></path>
	<path class="st2" d="M31.5,100.9v1.1h20v-1.1c-5.5,0-5.5-1.5-5.5-6.3v-4.1l-9,3.9v0.2C37,99.4,37,100.9,31.5,100.9z"></path>
	<path class="st2" d="M61,102h12.1v-1.1c-2.3,0-3.1-1.2-4.6-3.3l-9.2-12.8l-8,3.5L61,102z"></path>
</g>
<g>
	<path class="st0" d="M84.6,79.6c0-1.5-0.7-3.9-2.5-3.9c-1.2,0-1.8,1.2-1.8,2.3c0,1.6,0.8,3.3,1.5,4.8   C83.2,82.1,84.6,81.4,84.6,79.6z"></path>
	<path class="st1" d="M77.9,85.4c0.3,0.6,0.6,1.1,0.9,1.7l4.4-1.9c-0.3-0.5-0.6-1-0.9-1.5c2.6-1,5.6-2.3,5.6-5.6   c0-2.6-2.7-3.8-4.9-3.8c-3.6,0-6.3,2.4-6.3,6.2c0,1.3,0.3,2.7,0.8,3.9c-2.9,1.2-5.9,2.9-6.5,6.1l4.4-1.9   C75.4,86.9,76.5,85.9,77.9,85.4z M82,75.6c1.8,0,2.5,2.4,2.5,3.9c0,1.8-1.3,2.5-2.8,3.1c-0.6-1.4-1.5-3.2-1.5-4.8   C80.3,76.8,80.8,75.6,82,75.6z"></path>
	<path class="st2" d="M77.5,97.3c2.6,0,5.1-1,7.3-2.5c1.4,1.3,3,2.5,5,2.5c2.8,0,4.2-2.2,5.5-4.5l-0.6-0.4c-0.5,0.8-1.2,1.6-2.2,1.6   c-1.4,0-3-1.6-4-2.5c1.1-1.3,2.1-2.7,2.9-4.3c0.8-1.5,1.5-2.8,3.4-3v-0.6h-6.6v0.6c1,0,1.8,0.7,1.8,1.8c0,1.6-1.3,3.4-2.4,4.6   c-1.6-1.7-3.1-3.5-4.4-5.5L78.8,87c1.4,2.5,3.1,4.7,5,6.7c-1.1,0.8-2.2,1.1-2.9,1.1c-2.9,0-5.5-3.3-5.5-6.2c0-0.1,0-0.1,0-0.2   l-4.4,1.9c-0.1,0.4-0.1,0.9-0.1,1.3C70.8,92.6,71.5,97.3,77.5,97.3z"></path>
</g>
<g>
	<path class="st1" d="M109.1,70.5c0-4.8,0-6.3,5.9-6.3v-1.1H94.3v1.1c5.5,0,5.5,1.5,5.5,6.3v19.9l9.3-4V70.5z"></path>
	<path class="st2" d="M94.3,100.9v1.1h34.3l1.5-13.6h-1.2c-3.3,10.1-5.7,11.4-13.3,11.4c-6.1,0-6.5,0-6.5-5.9v-7.5l-9.3,4v4.3   C99.8,99.4,99.8,100.9,94.3,100.9z"></path>
</g>
<path class="st3" d="M1517.5,99.3"></path>
<g>
	<path class="st2" d="M34.6,44.1h2.8c1.3,0,2.4,0.6,2.4,2.2c0,0.4,0,1.8-1.5,2.1v0c0.6,0.1,0.8,0.4,1.1,1.4l0.8,2.8h-1.9l-0.6-2.3   c-0.3-1.2-0.5-1.2-1.2-1.2v3.5h-1.8V44.1z M36.3,47.8h0.6c0.7,0,1.1-0.5,1.1-1.1c0-0.4-0.1-1.1-1.1-1.1h-0.6V47.8z"></path>
	<path class="st2" d="M41.2,43.5H43v1.7h-1.8V43.5z M41.2,46.3H43v6.4h-1.8V46.3z"></path>
	<path class="st2" d="M49.3,50h-3.4c0,0.8,0.4,1.5,1.4,1.5c0.6,0,1.2-0.2,1.6-0.5l0,1.5c-0.6,0.2-1.2,0.4-1.8,0.4   c-2,0-2.9-1.4-2.9-3.3c0-1.7,0.9-3.3,2.6-3.3c0.5,0,2.5,0,2.5,3.4V50z M47.7,49c0-0.8-0.2-1.6-0.9-1.6c-0.9,0-0.9,1.2-0.9,1.6H47.7   z"></path>
	<path class="st2" d="M50.5,46.1c0-1.5,0.8-2.8,2.6-2.8c2.2,0,2.4,1.8,2.4,2.4c0,1.4-0.8,2.1-1.4,2.1v0c1.1,0.2,1.6,1,1.6,2.3   c0,1.2-0.6,2.6-2.2,2.6c-0.2,0-0.6,0-0.8-0.1l0.1-1.4c0.1,0,0.2,0.1,0.3,0.1c0.5,0,0.9-0.5,0.9-1.4c0-1-0.3-1.4-1.2-1.4v-1.4   c0.2,0,1,0,1-1.3c0-0.3,0-1.2-0.8-1.2c-0.8,0-0.8,0.9-0.8,1.8v6.3h-1.8V46.1z"></path>
	<path class="st2" d="M64,49.6c0.3-0.4,0.3-1.1,0.3-1.7h1.5c0,1.1-0.3,2.1-0.9,3l1.2,1.8h-1.9l-0.4-0.7c-0.4,0.6-1.2,0.8-1.9,0.8   c-1.7,0-2.7-1.1-2.7-2.6c0-0.5,0-1.7,1.4-2.4c-0.1-0.1-0.9-1-0.9-1.9c0-0.6,0.4-2,2.3-2c1.1,0,2.2,0.6,2.2,2c0,1.3-1.2,2.1-1.4,2.3   L64,49.6z M61.5,49c-0.2,0.3-0.5,0.6-0.5,1.2c0,0.5,0.4,1.2,1.1,1.2c0.5,0,0.8-0.2,1-0.5L61.5,49z M61.3,46c0,0.4,0.6,1.1,0.7,1.2   c0.5-0.4,0.8-0.8,0.8-1.3c0-0.2-0.1-0.8-0.7-0.8C61.6,45.2,61.3,45.5,61.3,46z"></path>
	<path class="st2" d="M69.7,44.1h1.8v7.1h2.6v1.6h-4.4V44.1z"></path>
	<path class="st2" d="M75.4,46.6c0.5-0.2,1.2-0.4,1.9-0.4c2,0,2.5,0.9,2.5,2.4v2.3c0,1,0,1.4,0,1.8h-1.6l0-0.9h0   c-0.1,0.4-0.8,1-1.6,1c-1.1,0-1.8-0.8-1.8-2c0-2.2,2.3-2.2,2.9-2.2h0.5c0-1.2-0.8-1.2-1.1-1.2c-0.4,0-0.9,0.1-1.6,0.6L75.4,46.6z    M78.2,49.6c-0.7,0-1.8,0.1-1.8,1.1c0,0.8,0.6,0.8,0.8,0.8c0.2,0,1,0,1-1.6V49.6z"></path>
	<path class="st2" d="M86,51.4c0,0.6,0,1,0,1.3h-1.6c0-0.3,0-0.6,0-1.1h0c-0.3,0.7-0.7,1.2-1.6,1.2c-1.3,0-1.7-1-1.7-2.3v-4.2h1.8v4   c0,0.8,0.3,1,0.7,1c0.6,0,0.8-0.5,0.8-1.4v-3.6H86V51.4z"></path>
	<path class="st2" d="M92.3,50h-3.4c0,0.8,0.4,1.5,1.4,1.5c0.6,0,1.2-0.2,1.6-0.5l0,1.5c-0.6,0.2-1.2,0.4-1.8,0.4   c-2,0-2.9-1.4-2.9-3.3c0-1.7,0.9-3.3,2.6-3.3c0.5,0,2.5,0,2.5,3.4V50z M90.7,49c0-0.8-0.2-1.6-0.9-1.6c-0.9,0-0.9,1.2-0.9,1.6H90.7   z"></path>
	<path class="st2" d="M96.7,48.8c0-0.8-0.3-1-0.7-1c-0.6,0-0.8,0.5-0.8,1.4v3.6h-1.8v-5.1c0-0.6,0-1,0-1.3H95c0,0.3,0,0.6,0,1.1h0   c0.3-0.7,0.7-1.2,1.6-1.2c1.3,0,1.7,1,1.7,2.3v4.2h-1.8V48.8z"></path>
	<path class="st2" d="M103.2,47.9c-0.5-0.2-0.9-0.3-1.4-0.3c-0.5,0-0.7,0.2-0.7,0.5c0,0.4,0.3,0.5,1.2,0.9c0.6,0.2,1.2,0.7,1.2,1.9   c0,1.4-1,2-2.1,2c-0.5,0-1.3-0.1-1.9-0.3l0-1.5c0.4,0.3,1,0.4,1.4,0.4c0.8,0,0.9-0.3,0.9-0.6c0-0.3-0.5-0.4-1.2-0.8   c-0.6-0.3-1.2-0.8-1.2-2c0-0.7,0.4-1.9,2.2-1.9c0.7,0,1.3,0.1,1.6,0.3L103.2,47.9z"></path>
	<path class="st2" d="M104.1,46.3h1V45l1.7-0.6v1.9h1.1v1.4h-1.1v3c0,0.6,0.3,0.8,0.6,0.8c0.2,0,0.4,0,0.6-0.1v1.4   c-0.2,0.1-0.7,0.2-1.2,0.2c-0.9,0-1.7-0.5-1.7-1.9v-3.3h-1V46.3z"></path>
	<path class="st2" d="M114,50h-3.4c0,0.8,0.4,1.5,1.4,1.5c0.6,0,1.2-0.2,1.6-0.5l0,1.5c-0.6,0.2-1.2,0.4-1.8,0.4   c-2,0-2.9-1.4-2.9-3.3c0-1.7,0.9-3.3,2.6-3.3c0.5,0,2.5,0,2.5,3.4V50z M112.4,49c0-0.8-0.2-1.6-0.9-1.6c-0.9,0-0.9,1.2-0.9,1.6   H112.4z"></path>
	<path class="st2" d="M115.2,43.5h1.8v1.7h-1.8V43.5z M115.2,46.3h1.8v6.4h-1.8V46.3z"></path>
	<path class="st2" d="M121.5,48.8c0-0.8-0.3-1-0.7-1c-0.6,0-0.8,0.5-0.8,1.4v3.6h-1.8v-5.1c0-0.6,0-1,0-1.3h1.6c0,0.3,0,0.6,0,1.1h0   c0.3-0.7,0.7-1.2,1.6-1.2c1.3,0,1.7,1,1.7,2.3v4.2h-1.8V48.8z"></path>
</g>
<g>
	<path class="st2" d="M50.6,113.9L50.6,113.9l-1.6,6.3h-1.1l-1.5-6.3h0v6.3h-1.5v-7.9h2.5l1.2,5.1h0l1.3-5.1h2.4v7.9h-1.5V113.9z"></path>
	<path class="st2" d="M53.8,114.6c0.4-0.1,1.1-0.4,1.7-0.4c1.9,0,2.3,0.9,2.3,2.2v2.2c0,0.9,0,1.3,0,1.7h-1.5l0-0.8h0   c-0.1,0.4-0.7,0.9-1.5,0.9c-1,0-1.6-0.7-1.6-1.8c0-2,2.1-2,2.6-2h0.5c0-1.1-0.8-1.1-1-1.1c-0.4,0-0.9,0.1-1.5,0.5L53.8,114.6z    M56.3,117.4c-0.6,0-1.7,0-1.7,1c0,0.8,0.6,0.8,0.7,0.8c0.1,0,1,0,1-1.5V117.4z"></path>
	<path class="st2" d="M59,111.7h1.6v8.5H59V111.7z"></path>
	<path class="st2" d="M66.4,117.7h-3.1c0,0.7,0.4,1.4,1.3,1.4c0.6,0,1.1-0.2,1.5-0.5l0,1.4c-0.5,0.2-1.1,0.3-1.7,0.3   c-1.9,0-2.7-1.3-2.7-3.1c0-1.6,0.8-3,2.4-3c0.5,0,2.3,0,2.3,3.1V117.7z M64.9,116.8c0-0.8-0.2-1.5-0.8-1.5c-0.8,0-0.8,1.1-0.8,1.5   H64.9z"></path>
	<path class="st2" d="M67.4,115.5c0-0.6,0-0.9,0-1.2h1.5c0,0.4,0,0.7,0,1.1h0c0.3-0.6,0.6-1.2,1.5-1.2h0.2v1.7   c-0.2,0-0.3-0.1-0.5-0.1c-0.9,0-1.1,0.9-1.1,1.8v2.7h-1.6V115.5z"></path>
	<path class="st2" d="M75.8,117.7h-3.1c0,0.7,0.4,1.4,1.3,1.4c0.6,0,1.1-0.2,1.5-0.5l0,1.4c-0.5,0.2-1.1,0.3-1.7,0.3   c-1.9,0-2.7-1.3-2.7-3.1c0-1.6,0.8-3,2.4-3c0.5,0,2.3,0,2.3,3.1V117.7z M74.3,116.8c0-0.8-0.2-1.5-0.8-1.5c-0.8,0-0.8,1.1-0.8,1.5   H74.3z"></path>
	<path class="st2" d="M76.9,111.7h1.6v1.6h-1.6V111.7z M76.9,114.3h1.6v5.9h-1.6V114.3z"></path>
	<path class="st2" d="M79.7,111.7h1.6v3.5h0c0.2-0.5,0.6-1,1.4-1c1.3,0,1.9,1.3,1.9,2.9c0,1.9-0.7,3.2-1.9,3.2c-0.9,0-1.3-0.7-1.5-1   h0c0,0.4,0,0.7,0,0.9h-1.5c0-0.3,0-0.6,0-1.3V111.7z M82.2,115.4c-0.7,0-0.8,0.9-0.8,1.8c0,0.7,0.1,1.8,0.8,1.8   c0.7,0,0.8-1.1,0.8-1.8C82.9,116.3,82.9,115.4,82.2,115.4z"></path>
	<path class="st2" d="M90.2,117.7h-3.1c0,0.7,0.4,1.4,1.3,1.4c0.6,0,1.1-0.2,1.5-0.5l0,1.4c-0.5,0.2-1.1,0.3-1.7,0.3   c-1.9,0-2.7-1.3-2.7-3.1c0-1.6,0.8-3,2.4-3c0.5,0,2.3,0,2.3,3.1V117.7z M88.7,116.8c0-0.8-0.2-1.5-0.8-1.5c-0.8,0-0.8,1.1-0.8,1.5   H88.7z"></path>
	<path class="st2" d="M90.8,114.3h0.9v-1.2l1.6-0.6v1.8h1v1.3h-1v2.7c0,0.6,0.2,0.7,0.5,0.7c0.2,0,0.4,0,0.5-0.1v1.3   c-0.2,0.1-0.6,0.2-1.1,0.2c-0.8,0-1.6-0.5-1.6-1.8v-3h-0.9V114.3z"></path>
	<path class="st2" d="M95.3,115.5c0-0.6,0-0.9,0-1.2h1.5c0,0.4,0,0.7,0,1.1h0c0.3-0.6,0.6-1.2,1.5-1.2h0.2v1.7   c-0.2,0-0.3-0.1-0.5-0.1c-0.9,0-1.1,0.9-1.1,1.8v2.7h-1.6V115.5z"></path>
	<path class="st2" d="M99.3,111.7h1.6v1.6h-1.6V111.7z M99.3,114.3h1.6v5.9h-1.6V114.3z"></path>
	<path class="st2" d="M106.7,117.7h-3.1c0,0.7,0.4,1.4,1.3,1.4c0.6,0,1.1-0.2,1.5-0.5l0,1.4c-0.5,0.2-1.1,0.3-1.7,0.3   c-1.9,0-2.7-1.3-2.7-3.1c0-1.6,0.8-3,2.4-3c0.5,0,2.3,0,2.3,3.1V117.7z M105.3,116.8c0-0.8-0.2-1.5-0.8-1.5c-0.8,0-0.8,1.1-0.8,1.5   H105.3z"></path>
	<path class="st2" d="M107.7,111.7h1.6v3.5h0c0.2-0.5,0.6-1,1.4-1c1.3,0,1.9,1.3,1.9,2.9c0,1.9-0.7,3.2-1.9,3.2   c-0.9,0-1.3-0.7-1.5-1h0c0,0.4,0,0.7,0,0.9h-1.5c0-0.3,0-0.6,0-1.3V111.7z M110.2,115.4c-0.7,0-0.8,0.9-0.8,1.8   c0,0.7,0.1,1.8,0.8,1.8c0.7,0,0.8-1.1,0.8-1.8C111,116.3,110.9,115.4,110.2,115.4z"></path>
	<path class="st2" d="M68.7,127.9h2.5v4.3c-0.4,0.2-1.2,0.4-2.4,0.4c-1.3,0-3.4-0.8-3.4-4.2c0-1.9,1-4.1,3.7-4.1   c0.8,0,1.4,0.2,1.9,0.3l-0.1,1.6c-0.4-0.2-0.9-0.4-1.6-0.4c-1.8,0-2.1,1.8-2.1,2.7c0,1.5,0.6,2.6,1.9,2.6c0.2,0,0.4,0,0.6-0.1v-1.8   h-0.9V127.9z"></path>
	<path class="st2" d="M78.2,128.8c0-0.7-0.3-0.9-0.6-0.9c-0.5,0-0.7,0.4-0.7,0.8v3.8h-1.6v-3.7c0-0.8-0.3-0.9-0.6-0.9   c-0.5,0-0.7,0.5-0.7,1.3v3.3h-1.6v-4.7c0-0.6,0-0.9,0-1.2h1.5c0,0.3,0,0.6,0,1h0c0.2-0.6,0.7-1.1,1.5-1.1c0.8,0,1.2,0.4,1.4,1   c0.2-0.6,0.6-1,1.5-1c1.2,0,1.6,1,1.6,2.1v3.9h-1.6V128.8z"></path>
	<path class="st2" d="M81,123.9h1.6v3.5h0c0.2-0.5,0.6-1,1.4-1c1.3,0,1.9,1.3,1.9,2.9c0,1.9-0.7,3.2-1.9,3.2c-0.9,0-1.3-0.7-1.5-1h0   c0,0.4,0,0.7,0,0.9h-1.5c0-0.3,0-0.6,0-1.3V123.9z M83.4,127.7c-0.7,0-0.8,0.9-0.8,1.8c0,0.7,0.1,1.8,0.8,1.8   c0.7,0,0.8-1.1,0.8-1.8C84.2,128.5,84.1,127.7,83.4,127.7z"></path>
	<path class="st2" d="M90.4,129.1h-1.7v3.3H87v-7.9h1.7v3.2h1.7v-3.2h1.7v7.9h-1.7V129.1z"></path>
</g>
<g>
	<path class="st0" d="M85.2,78.9c0-2-0.8-5-3-5c-1.4,0-2.1,1.5-2.1,2.9c0,2,1,4.2,1.7,6.1C83.6,82.2,85.2,81.3,85.2,78.9z"></path>
</g>
<g>
	<polygon class="st1" points="156,97.3 113,151.1 46.1,151.1 4.3,98.8 19.2,33.5 79.5,4.4 139.9,33.5 148.8,72.5 152.7,71.6    143.3,30.7 79.5,0 15.8,30.7 0,99.7 44.1,155.1 114.9,155.1 157.9,101.3 157.9,101.3 157.9,97.3  "></polygon>
</g>
</svg>
